<?xml version="1.0" encoding="UTF-8" standalone="no"?>
<svg
   xmlns:dc="http://purl.org/dc/elements/1.1/"
   xmlns:cc="http://creativecommons.org/ns#"
   xmlns:rdf="http://www.w3.org/1999/02/22-rdf-syntax-ns#"
   xmlns:svg="http://www.w3.org/2000/svg"
   xmlns="http://www.w3.org/2000/svg"
   xml:space="preserve"
   viewBox="0 0 99.999997 100"
   height="100"
   width="100"
   y="0px"
   x="0px"
   id="Layer_1"
   version="1.1"><metadata
     id="metadata34"><rdf:RDF><cc:Work
         rdf:about=""><dc:format>image/svg+xml</dc:format><dc:type
           rdf:resource="http://purl.org/dc/dcmitype/StillImage" /><dc:title></dc:title></cc:Work></rdf:RDF></metadata><defs
     id="defs32" /><g
     transform="translate(0,57.691002)"
     id="_x31_1"><g
       id="g4170"
       transform="matrix(1.8328038,0,0,2.1253247,0.27254962,-57.475137)"><g
         transform="translate(2.3839071e-8,1.8820654)"
         id="g4265"><path
           id="rayo_1"
           style="fill:#f5e524"
           d="m 26.985,5.061 c -0.581,-0.58 -1.524,-0.58 -2.107,0 -0.582,0.583 -0.582,1.526 0,2.108 l 2.342,2.343 c 0.582,0.583 1.527,0.583 2.109,0 C 29.91,8.929 29.91,7.987 29.328,7.404 L 26.985,5.061 Z" /><path
           id="rayo_2"
           style="fill:#f5e524"
           d="M 38.617,1.49 C 38.617,0.666 37.948,0 37.125,0 c -0.822,0 -1.49,0.666 -1.49,1.49 l 0,3.312 c 0,0.823 0.668,1.49 1.49,1.49 0.823,0 1.492,-0.667 1.492,-1.49 l 0,-3.312 z" /><path
           id="rayo_3"
           style="fill:#f5e524"
           d="m 49.365,7.189 c 0.581,-0.582 0.584,-1.527 0,-2.108 -0.58,-0.583 -1.525,-0.583 -2.108,0 l -2.341,2.342 c -0.584,0.582 -0.584,1.526 0,2.108 0.582,0.582 1.524,0.582 2.106,0 l 2.343,-2.342 z" /><path
           id="rayo_4"
           style="fill:#f5e524"
           d="m 52.936,18.82 c 0.824,0 1.492,-0.668 1.492,-1.491 0,-0.823 -0.668,-1.491 -1.492,-1.491 l -3.311,0 c -0.822,0 -1.492,0.668 -1.492,1.491 0,0.823 0.67,1.491 1.492,1.49 l 3.311,0.001 z" /><path
           id="rayo_5"
           style="fill:#f5e524"
           d="m 47.238,29.568 c 0.58,0.584 1.525,0.584 2.108,10e-4 0.583,-0.583 0.583,-1.526 0,-2.108 l -2.343,-2.342 c -0.582,-0.582 -1.525,-0.582 -2.107,0 -0.582,0.582 -0.582,1.525 0,2.107 l 2.342,2.342 z" /><path
           id="gota_1"
           style="fill:#3399d9"
           d="m 16.154,31.272 c 0.413,-0.715 0.167,-1.628 -0.547,-2.04 -0.713,-0.412 -1.627,-0.167 -2.039,0.547 l -1.657,2.872 c -0.413,0.714 -0.167,1.626 0.547,2.039 0.714,0.413 1.627,0.167 2.04,-0.546 l 1.656,-2.872 z" /><path
           id="gota_2"
           style="fill:#3399d9"
           d="m 17.042,38.742 c 0.412,-0.715 0.167,-1.627 -0.547,-2.041 -0.714,-0.411 -1.627,-0.166 -2.04,0.547 l -1.658,2.872 c -0.413,0.715 -0.168,1.628 0.546,2.04 0.715,0.412 1.627,0.168 2.04,-0.546 l 1.659,-2.872 z" /><path
           id="gota_3"
           style="fill:#3399d9"
           d="m 31.63,31.272 c 0.412,-0.715 0.168,-1.628 -0.546,-2.04 -0.714,-0.412 -1.627,-0.167 -2.04,0.547 l -1.657,2.872 c -0.413,0.714 -0.168,1.626 0.546,2.039 0.714,0.413 1.627,0.167 2.039,-0.546 l 1.658,-2.872 z" /><path
           id="sol"
           style="clip-rule:evenodd;fill:#f5e524;fill-rule:evenodd;image-rendering:optimizeQuality;shape-rendering:geometricPrecision;text-rendering:geometricPrecision"
           d="m 27.658447,12.89388 c 0.340093,0.09146 0.614783,0.6054 1.08132,0.910278 l 0.675825,0.54007 c 0.414215,0.348432 0.505778,0.313589 0.776108,0.849303 0.126445,0.256968 0.191847,0.252613 0.401135,0.409407 0.422935,0.309234 0.08284,0.230837 0.880752,0.705575 0.292131,0.174216 1.151082,0.805749 1.342929,1.093206 0.348813,0.513937 0.25725,0.409407 0.80227,0.818815 0.723786,0.544425 0.688905,0.33101 1.242645,1.158536 0.409855,0.605401 1.015918,0.54007 1.565298,0.87108 0.187487,0.108885 0.327012,0.187282 0.518859,0.291812 0.183127,0.09582 0.331372,0.21777 0.497058,0.317944 0.244169,0.148084 0.841511,0.457317 1.020278,0.601045 l 0.688905,0.527004 c 0.636583,0.500871 0.318291,0.43554 1.212124,0.818815 0.392415,0.165505 1.983873,0.945122 2.245483,1.006097 0.161326,-0.108885 0.388054,-0.374564 0.54066,-0.527003 0.457816,-0.448606 1.042078,-1.41986 1.329848,-1.994773 0.418576,-0.836237 0.858952,-2.295296 0.858952,-3.527874 0,-1.341463 -0.01308,-1.942509 -0.392415,-3.257839 l -0.440376,-1.219512 c -0.226728,-0.54007 -0.492698,-0.97561 -0.789189,-1.424216 -0.27033,-0.400697 -0.880752,-1.154181 -1.286247,-1.480836 L 41.515036,9.6360404 C 41.109541,9.3180962 41.327549,9.457469 40.865372,9.1787234 39.679408,8.455727 37.874302,7.9896992 36.479051,7.9896992 c -1.809467,0 -3.928504,0.3571428 -5.402239,1.4677698 -0.479617,0.3614982 -0.483977,0.3789198 -0.902553,0.792683 -0.148245,0.148083 -0.27033,0.27439 -0.422935,0.422474 l -0.422936,0.466027 c -0.383694,0.457317 -0.82843,0.875436 -1.299327,1.245645 -0.09592,0.07404 -0.148246,0.11324 -0.235449,0.204704 -0.174406,0.178571 -0.04796,0.117595 -0.135165,0.304878 z" />
           <path
           id="nube"
           style="clip-rule:evenodd;fill:#d2d2d2;fill-rule:evenodd;image-rendering:optimizeQuality;shape-rendering:geometricPrecision;text-rendering:geometricPrecision"
           d="m -0.1332128,26.099452 c 0,1.986063 0.7848288,3.86324 2.1713597,5.243902 1.3821707,1.385017 3.025951,2.168989 5.1406286,2.168989 l 1.2164847,0 c 0.2834104,0 0.4316558,-0.174216 0.5929817,-0.296167 0.7237866,-0.557491 0.8676719,-2.39547 -0.9984766,-2.543554 -1.5086154,-0.117595 -2.5201725,-0.309233 -3.6102125,-1.411149 -0.087203,-0.08711 -0.135165,-0.165505 -0.218008,-0.256969 -0.6322232,-0.705575 -1.007197,-1.633275 -1.007197,-2.648083 0,-1.049651 0.091563,-1.541812 0.5275794,-2.421602 0.2267283,-0.452962 0.6932654,-1.062718 1.0769595,-1.358885 l 0.7107061,-0.509582 c 0.2746901,-0.165505 0.5275794,-0.270035 0.8284304,-0.387631 0.4447363,-0.16986 0.2746901,-0.422473 0.2877706,-0.9277 0.00872,-0.322299 0.1002836,-0.762195 0.1482454,-1.067073 0.3226518,-1.929442 0.8589515,-3.327525 1.9271907,-4.751741 0.082843,-0.113241 0.1831267,-0.248258 0.2790503,-0.348432 L 9.698948,13.830291 c 0.056682,-0.05662 0.087203,-0.09582 0.1438853,-0.148084 0.3182917,-0.296167 0.7063457,-0.54878 1.0638787,-0.783972 1.334209,-0.884146 2.886426,-1.385017 4.482245,-1.607143 1.399611,-0.195993 2.930027,0 4.224995,0.466028 0.148245,0.05662 0.27033,0.09582 0.431656,0.16115 1.116201,0.444251 2.114677,1.067073 3.030311,1.837979 0.313931,0.261324 0.706346,0.6054 0.937434,0.949477 0.287771,-0.06969 0.523219,-0.16115 0.824071,-0.204704 1.251365,-0.191637 2.659697,0.0044 3.666894,0.509582 0.619143,0.313589 1.238286,0.627178 1.683022,1.158536 0.313931,0.374565 0.710706,0.670732 0.989756,1.075784 0.204928,0.291812 0.436016,0.736063 0.588622,1.075784 0.340092,0.762195 0.514499,1.920731 0.514499,2.983449 0,0.248258 -0.03488,0.3223 -0.03488,0.553136 0.139525,-0.0087 0.209288,-0.05662 0.344453,-0.09582 0.156966,-0.04355 0.226728,-0.06098 0.370614,-0.108885 0.902553,-0.304878 1.91847,-0.309233 2.899506,-0.309233 0.880752,0 1.700462,0.413763 2.332686,0.87979 l 0.597342,0.509582 c 0.701985,0.731707 1.356009,1.916376 1.356009,2.961672 0,1.149826 -0.126444,1.95993 -0.710706,2.870209 -0.597342,0.9277 -1.491175,1.620209 -2.563774,1.938153 -0.204927,0.06097 -0.388054,0.09582 -0.601702,0.130662 -0.244169,0.04355 -0.475257,0.01307 -0.728147,0.04791 -0.592981,0.08275 -0.749947,0.0087 -1.129281,0.387631 -0.54066,0.540069 -0.645304,1.376306 -0.109004,1.972996 0.370613,0.413763 0.667104,0.466028 1.111841,0.470383 l 0.27033,0 0.03052,0 c 1.704822,0 2.890786,-0.483449 4.146512,-1.315331 1.055159,-0.696864 1.992593,-1.851045 2.546333,-2.952961 0.357533,-0.705575 0.654024,-1.777003 0.723787,-2.813588 l 0,-0.9277 c -0.01308,-0.187283 -0.03924,-0.370209 -0.07412,-0.544425 -0.109004,-0.522648 -0.07412,-1.154181 -0.257249,-1.663763 -0.100284,-0.287457 -0.200568,-0.570558 -0.353173,-0.823171 -0.161326,-0.265679 -0.296491,-0.487805 -0.497058,-0.722996 L 41.558641,21.182206 C 40.43372,19.679593 38.855342,18.869488 36.984833,18.560255 l -1.752784,-0.169861 c -0.01744,-0.230836 -0.130805,-0.527003 -0.204928,-0.749128 -0.309571,-0.923345 -0.684545,-1.807491 -1.247005,-2.587108 -0.135165,-0.187282 -0.27033,-0.37892 -0.418576,-0.544425 -0.09156,-0.10453 -0.117724,-0.156794 -0.222368,-0.256969 -0.174406,-0.16986 -0.27905,-0.335365 -0.475257,-0.483449 l -0.523219,-0.474739 c -0.462177,-0.44425 -1.595819,-0.958188 -2.17136,-1.189024 -1.604539,-0.635888 -1.957712,-0.757839 -3.854382,-0.757839 -0.941794,0 -0.893832,0.352787 -1.447573,-0.20906 C 23.886909,10.345971 22.421895,9.5532878 21.46702,9.1351694 20.760674,8.825936 20.054328,8.5907444 19.225898,8.3860406 16.83217,7.78064 14.490764,7.9374344 12.175519,8.7083402 11.608698,8.8956224 11.168322,9.0698384 10.684344,9.3224516 10.230888,9.5532878 9.7381894,9.8146118 9.3196141,10.093357 L 8.1118498,10.99057 c -0.5842615,0.49216 -1.09004,1.010453 -1.5914584,1.585365 -1.5652975,1.794425 -2.616096,4.281359 -2.8907861,6.659407 -0.1002837,0.879791 -0.082843,0.461672 -0.9679555,1.171603 -0.4447364,0.361498 -0.6889053,0.614111 -1.0507986,1.054006 -1.05515872,1.29791 -1.744064,2.71777 -1.744064,4.638501 z" /><path
           id="gota_1-3"
           style="fill:#3399d9"
           d="m 23.705707,31.271786 c 0.413,-0.715 0.167,-1.628 -0.547,-2.04 -0.713,-0.412 -1.627,-0.167 -2.039,0.547 l -1.657,2.872 c -0.413,0.714 -0.167,1.626 0.547,2.039 0.714,0.413 1.627,0.167 2.04,-0.546 l 1.656,-2.872 z" /><path
           id="gota_1-3-6"
           style="fill:#3399d9"
           d="m 25.611983,38.741703 c 0.413,-0.715 0.167,-1.628 -0.547,-2.04 -0.713,-0.412 -1.627,-0.167 -2.039,0.547 l -1.657,2.872 c -0.413,0.714 -0.167,1.626 0.547,2.039 0.714,0.413 1.627,0.167 2.04,-0.546 l 1.656,-2.872 z" /></g></g></g></svg>