<?xml version="1.0" encoding="UTF-8" standalone="no"?>
<!-- Generator: Adobe Illustrator 15.0.0, SVG Export Plug-In . SVG Version: 6.00 Build 0)  -->

<svg
   xmlns:dc="http://purl.org/dc/elements/1.1/"
   xmlns:cc="http://creativecommons.org/ns#"
   xmlns:rdf="http://www.w3.org/1999/02/22-rdf-syntax-ns#"
   xmlns:svg="http://www.w3.org/2000/svg"
   xmlns="http://www.w3.org/2000/svg"
   xmlns:sodipodi="http://sodipodi.sourceforge.net/DTD/sodipodi-0.dtd"
   xmlns:inkscape="http://www.inkscape.org/namespaces/inkscape"
   version="1.1"
   id="Layer_1"
   x="0px"
   y="0px"
   width="50"
   height="50"
   viewBox="0 0 109.19848 90.190888"
   xml:space="preserve"
   inkscape:version="0.91 r"
   sodipodi:docname="adh-2.svg"><metadata
     id="metadata19"><rdf:RDF><cc:Work
         rdf:about=""><dc:format>image/svg+xml</dc:format><dc:type
           rdf:resource="http://purl.org/dc/dcmitype/StillImage" /><dc:title></dc:title></cc:Work></rdf:RDF></metadata><defs
     id="defs17" /><sodipodi:namedview
     pagecolor="#ffffff"
     bordercolor="#666666"
     borderopacity="1"
     objecttolerance="10"
     gridtolerance="10"
     guidetolerance="10"
     inkscape:pageopacity="0"
     inkscape:pageshadow="2"
     inkscape:window-width="1600"
     inkscape:window-height="827"
     id="namedview15"
     showgrid="false"
     inkscape:zoom="4.6299021"
     inkscape:cx="21.403723"
     inkscape:cy="51.404974"
     inkscape:window-x="0"
     inkscape:window-y="0"
     inkscape:window-maximized="1"
     inkscape:current-layer="Layer_1" /><g
     id="_x32_1"
     transform="matrix(2.5252872,0,0,2.8196227,0,2.2950771)"><path
       id=""
       style="fill:#d2d2d2"
       d="m 32.375,9.823 c 1.451,-0.588 2.902,-0.541 3.318,-0.541 2.081,0 4.598,1.82 4.598,4.81 0,2.539 -2.061,4.598 -4.598,4.598 l -0.207,0 c -0.775,0 -1.406,0.631 -1.406,1.409 0,0.774 0.631,1.403 1.406,1.403 l 0.201,0 c 4.172,0 7.555,-3.381 7.555,-7.555 0,0 0.039,-7.546 -7.902,-7.546 C 33.623,-0.668 27.008,-1.027 25.152,-0.528 23.14,-2.53 19.79,-4 16.403,-4 9.687,-4 4.185,1.192 3.688,7.783 1.485,9.052 0,11.429 0,14.153 c 0,4.061 3.291,7.35 7.349,7.35 l 0.999,0 c 0.637,0 1.234,-0.688 1.234,-1.406 0,-0.776 -0.629,-1.406 -1.406,-1.406 l -0.19,0 c -2.744,0 -4.77,-1.986 -4.77,-4.557 0,-2.099 1.333,-3.94 3.417,-4.568 0.247,-9.922 8.962,-10.429 9.93,-10.429 2.878,0 5.734,1.413 7.572,3.503 3.717,-1.222 8.811,1.643 8.24,7.183 z"
       inkscape:connector-curvature="0" /><path
       style="fill:#3399d9"
       d="m 31.631,19.374 c 0.412,-0.715 0.168,-1.627 -0.547,-2.039 -0.715,-0.412 -1.629,-0.168 -2.041,0.545 l -1.658,2.873 c -0.411,0.713 -0.166,1.627 0.548,2.039 0.715,0.414 1.627,0.168 2.039,-0.545 l 1.659,-2.873 z"
       id="path5"
       inkscape:connector-curvature="0" /><path
       style="fill:#3399d9"
       d="m 16.286772,18.948411 c 0.413,-0.715 0.167,-1.628 -0.547,-2.04 -0.713,-0.412 -1.627,-0.167 -2.039,0.547 l -1.657,2.872 c -0.413,0.714 -0.167,1.626 0.547,2.039 0.714,0.413 1.627,0.167 2.04,-0.546 l 1.656,-2.872 z"
       id="path7"
       inkscape:connector-curvature="0" /><path
       style="fill:#3399d9"
       d="m 17.174772,26.418411 c 0.412,-0.715 0.167,-1.627 -0.547,-2.041 -0.714,-0.411 -1.627,-0.166 -2.04,0.547 l -1.658,2.872001 c -0.413,0.715 -0.168,1.628 0.546,2.04 0.715,0.412 1.627,0.168 2.04,-0.546 l 1.659,-2.872001 z"
       id="path9"
       inkscape:connector-curvature="0" /><path
       style="fill:#3399d9"
       d="m 31.476387,26.069212 c 0.412,-0.715 0.168,-1.628 -0.546,-2.04 -0.714,-0.412 -1.627,-0.167 -2.04,0.547 l -1.657,2.872 c -0.413,0.714001 -0.168,1.626001 0.546,2.039001 0.714,0.413 1.627,0.167 2.039,-0.546 l 1.658,-2.872001 z"
       id="path11"
       inkscape:connector-curvature="0" /><path
       style="fill:#f5c524"
       d="m 20.07046,27.099045 c -0.283,0.44 -5.021,7.629001 -5.021,7.629001 0,0 8.606,-7.479001 8.924,-7.754001 0.533,-0.468 0.494,-0.595 0.121,-1.286 -0.267,-0.495 -1.162,-2.161 -1.385,-2.562 -0.259,-0.457 -0.296,-0.446 -0.031,-0.873 0.26,-0.426 5.492,-9.201 5.492,-9.201 0,0 -8.41,7.222 -9.103,7.82 -0.988,0.854 -0.973,1.016 -0.461,2.129 0.262,0.569 1.316,2.834 1.519,3.213 0.21,0.401 0.267,0.383 -0.055,0.885 z"
       id="path13"
       inkscape:connector-curvature="0" /></g></svg>