<?xml version="1.0" encoding="UTF-8" standalone="no"?>
<svg
   xmlns:dc="http://purl.org/dc/elements/1.1/"
   xmlns:cc="http://creativecommons.org/ns#"
   xmlns:rdf="http://www.w3.org/1999/02/22-rdf-syntax-ns#"
   xmlns:svg="http://www.w3.org/2000/svg"
   xmlns="http://www.w3.org/2000/svg"
   xml:space="preserve"
   viewBox="0 0 109.19848 90.190886"
   height="100"
   width="100"
   y="0px"
   x="0px"
   id="Layer_1"
   version="1.1"><metadata
     id="metadata4212"><rdf:RDF><cc:Work
         rdf:about=""><dc:format>image/svg+xml</dc:format><dc:type
           rdf:resource="http://purl.org/dc/dcmitype/StillImage" /><dc:title></dc:title></cc:Work></rdf:RDF></metadata><defs
     id="defs4210" /><g
     transform="translate(0,53.536738)"
     id="_x31_1"><g
       transform="matrix(2.0013939,0,0,2.3208222,0.26661129,-63.040533)"
       id="g4147"><g
         id="g4170"><path
           d="m 26.985,5.061 c -0.581,-0.58 -1.524,-0.58 -2.107,0 -0.582,0.583 -0.582,1.526 0,2.108 l 2.342,2.343 c 0.582,0.583 1.527,0.583 2.109,0 C 29.91,8.929 29.91,7.987 29.328,7.404 L 26.985,5.061 Z"
           style="fill:#f5e524"
           id="rayo_1" /><path
           d="M 38.617,1.49 C 38.617,0.666 37.948,0 37.125,0 c -0.822,0 -1.49,0.666 -1.49,1.49 l 0,3.312 c 0,0.823 0.668,1.49 1.49,1.49 0.823,0 1.492,-0.667 1.492,-1.49 l 0,-3.312 z"
           style="fill:#f5e524"
           id="rayo_2" /><path
           d="m 49.365,7.189 c 0.581,-0.582 0.584,-1.527 0,-2.108 -0.58,-0.583 -1.525,-0.583 -2.108,0 l -2.341,2.342 c -0.584,0.582 -0.584,1.526 0,2.108 0.582,0.582 1.524,0.582 2.106,0 l 2.343,-2.342 z"
           style="fill:#f5e524"
           id="rayo_3" /><path
           d="m 52.936,18.82 c 0.824,0 1.492,-0.668 1.492,-1.491 0,-0.823 -0.668,-1.491 -1.492,-1.491 l -3.311,0 c -0.822,0 -1.492,0.668 -1.492,1.491 0,0.823 0.67,1.491 1.492,1.49 l 3.311,0.001 z"
           style="fill:#f5e524"
           id="rayo_4" /><path
           d="m 47.238,29.568 c 0.58,0.584 1.525,0.584 2.108,10e-4 0.583,-0.583 0.583,-1.526 0,-2.108 l -2.343,-2.342 c -0.582,-0.582 -1.525,-0.582 -2.107,0 -0.582,0.582 -0.582,1.525 0,2.107 l 2.342,2.342 z"
           style="fill:#f5e524"
           id="rayo_5" /><path
           d="m 16.154,31.272 c 0.413,-0.715 0.167,-1.628 -0.547,-2.04 -0.713,-0.412 -1.627,-0.167 -2.039,0.547 l -1.657,2.872 c -0.413,0.714 -0.167,1.626 0.547,2.039 0.714,0.413 1.627,0.167 2.04,-0.546 l 1.656,-2.872 z"
           style="fill:#3399d9"
           id="gota_1" /><path
           d="m 17.042,38.742 c 0.412,-0.715 0.167,-1.627 -0.547,-2.041 -0.714,-0.411 -1.627,-0.166 -2.04,0.547 l -1.658,2.872 c -0.413,0.715 -0.168,1.628 0.546,2.04 0.715,0.412 1.627,0.168 2.04,-0.546 l 1.659,-2.872 z"
           style="fill:#3399d9"
           id="gota_2" /><path
           d="m 31.63,31.272 c 0.412,-0.715 0.168,-1.628 -0.546,-2.04 -0.714,-0.412 -1.627,-0.167 -2.04,0.547 l -1.657,2.872 c -0.413,0.714 -0.168,1.626 0.546,2.039 0.714,0.413 1.627,0.167 2.039,-0.546 l 1.658,-2.872 z"
           style="fill:#3399d9"
           id="gota_3" /><path
           d="m 31.343615,38.392801 c 0.412,-0.715 0.168,-1.628 -0.546,-2.04 -0.714,-0.412 -1.627,-0.167 -2.04,0.547 l -1.657,2.872 c -0.413,0.714 -0.168,1.626 0.546,2.039 0.714,0.413 1.627,0.167 2.039,-0.546 l 1.658,-2.872 z"
           style="fill:#3399d9"
           id="gota_4" /><path
           d="m 19.937688,39.422634 c -0.283,0.44 -5.021,7.629 -5.021,7.629 0,0 8.606,-7.479 8.924,-7.754 0.533,-0.468 0.494,-0.595 0.121,-1.286 -0.267,-0.495 -1.162,-2.161 -1.385,-2.562 -0.259,-0.457 -0.296,-0.446 -0.031,-0.873 0.26,-0.426 5.492,-9.201 5.492,-9.201 0,0 -8.41,7.222 -9.103,7.82 -0.988,0.854 -0.973,1.016 -0.461,2.129 0.262,0.569 1.316,2.834 1.519,3.213 0.21,0.401 0.267,0.383 -0.055,0.885 z"
           style="fill:#f5c524"
           id="trueno" /><g
           id="g4145"
           style="clip-rule:evenodd;fill-rule:evenodd;image-rendering:optimizeQuality;shape-rendering:geometricPrecision;text-rendering:geometricPrecision"
           transform="matrix(0.00436016,0,0,0.0043554,-15.916992,-2.5460134)"><path
             id="sol"
             style="fill:#f5e524"
             d="m 9994,3545 c 78,21 141,139 248,209 l 155,124 c 95,80 116,72 178,195 29,59 44,58 92,94 97,71 19,53 202,162 67,40 264,185 308,251 80,118 59,94 184,188 166,125 158,76 285,266 94,139 233,124 359,200 43,25 75,43 119,67 42,22 76,50 114,73 56,34 193,105 234,138 l 158,121 c 146,115 73,100 278,188 90,38 455,217 515,231 37,-25 89,-86 124,-121 105,-103 239,-326 305,-458 96,-192 197,-527 197,-810 0,-308 -3,-446 -90,-748 l -101,-280 c -52,-124 -113,-224 -181,-327 -62,-92 -202,-265 -295,-340 l -210,-171 c -93,-73 -43,-41 -149,-105 -272,-166 -686,-273 -1006,-273 -415,0 -901,82 -1239,337 -110,83 -111,87 -207,182 -34,34 -62,63 -97,97 l -97,107 c -88,105 -190,201 -298,286 -22,17 -34,26 -54,47 -40,41 -11,27 -31,70 z" /><path
             id="sol_adentro"
             style="fill:#ffffff"
             d="m 10600,3744 c 55,14 99,96 174,145 l 108,87 c 66,56 81,50 124,137 21,41 32,40 65,65 67,50 13,37 141,114 47,27 185,129 216,175 56,83 41,66 128,132 116,87 110,53 199,185 66,98 163,87 251,140 30,18 53,30 84,47 29,15 52,35 79,51 39,24 135,74 164,97 l 110,84 c 102,81 51,70 195,131 63,27 318,152 359,162 26,-17 63,-60 88,-84 73,-72 167,-229 212,-321 67,-134 138,-368 138,-566 0,-215 -2,-312 -63,-523 l -70,-196 c -36,-86 -79,-156 -127,-228 -43,-65 -141,-185 -206,-238 l -147,-120 c -65,-51 -30,-28 -104,-73 -190,-116 -479,-191 -703,-191 -290,0 -630,58 -866,235 -78,59 -78,61 -145,128 -24,24 -44,44 -68,68 l -68,74 c -61,74 -133,141 -208,201 -15,12 -24,17 -38,32 -28,29 -8,19 -22,50 z" /><path
             id="nube"
             style="fill:#aaaaaa"
             d="m 3620,6577 c 0,456 180,887 498,1204 317,318 694,498 1179,498 l 279,0 c 65,0 99,-40 136,-68 166,-128 199,-550 -229,-584 -346,-27 -578,-71 -828,-324 -20,-20 -31,-38 -50,-59 -145,-162 -231,-375 -231,-608 0,-241 21,-354 121,-556 52,-104 159,-244 247,-312 l 163,-117 c 63,-38 121,-62 190,-89 102,-39 63,-97 66,-213 2,-74 23,-175 34,-245 74,-443 197,-764 442,-1091 19,-26 42,-57 64,-80 l 174,-173 c 13,-13 20,-22 33,-34 73,-68 162,-126 244,-180 306,-203 662,-318 1028,-369 321,-45 672,0 969,107 34,13 62,22 99,37 256,102 485,245 695,422 72,60 162,139 215,218 66,-16 120,-37 189,-47 287,-44 610,1 841,117 142,72 284,144 386,266 72,86 163,154 227,247 47,67 100,169 135,247 78,175 118,441 118,685 0,57 -8,74 -8,127 32,-2 48,-13 79,-22 36,-10 52,-14 85,-25 207,-70 440,-71 665,-71 202,0 390,95 535,202 l 137,117 c 161,168 311,440 311,680 0,264 -29,450 -163,659 -137,213 -342,372 -588,445 -47,14 -89,22 -138,30 -56,10 -109,3 -167,11 -136,19 -172,2 -259,89 -124,124 -148,316 -25,453 85,95 153,107 255,108 l 62,0 7,0 c 391,0 663,-111 951,-302 242,-160 457,-425 584,-678 82,-162 150,-408 166,-646 l 0,-213 c -3,-43 -9,-85 -17,-125 -25,-120 -17,-265 -59,-382 -23,-66 -46,-131 -81,-189 -37,-61 -68,-112 -114,-166 l -90,-130 c -258,-345 -620,-531 -1049,-602 l -402,-39 c -4,-53 -30,-121 -47,-172 -71,-212 -157,-415 -286,-594 -31,-43 -62,-87 -96,-125 -21,-24 -27,-36 -51,-59 -40,-39 -64,-77 -109,-111 l -120,-109 c -106,-102 -366,-220 -498,-273 -368,-146 -449,-174 -884,-174 -216,0 -205,81 -332,-48 -179,-182 -515,-364 -734,-460 -162,-71 -324,-125 -514,-172 -549,-139 -1086,-103 -1617,74 -130,43 -231,83 -342,141 -104,53 -217,113 -313,177 l -277,206 c -134,113 -250,232 -365,364 -359,412 -600,983 -663,1529 -23,202 -19,106 -222,269 -102,83 -158,141 -241,242 -242,298 -400,624 -400,1065 z" /></g></g></g></g></svg>