<?xml version="1.0" encoding="UTF-8" standalone="no"?>
<svg
   xmlns:dc="http://purl.org/dc/elements/1.1/"
   xmlns:cc="http://creativecommons.org/ns#"
   xmlns:rdf="http://www.w3.org/1999/02/22-rdf-syntax-ns#"
   xmlns:svg="http://www.w3.org/2000/svg"
   xmlns="http://www.w3.org/2000/svg"
   xml:space="preserve"
   style="enable-background:new 0 0 43.242 39.225;"
   viewBox="0 0 43.242 39.225"
   height="39.225px"
   width="43.242px"
   y="0px"
   x="0px"
   id="Layer_1"
   version="1.1"><metadata
     id="metadata12"><rdf:RDF><cc:Work
         rdf:about=""><dc:format>image/svg+xml</dc:format><dc:type
           rdf:resource="http://purl.org/dc/dcmitype/StillImage" /><dc:title></dc:title></cc:Work></rdf:RDF></metadata><defs
     id="defs10" /><g
     id="_x32_7"><g
       transform="matrix(1,0,0,1.0537398,0,0.11662955)"
       id="g4158"><path
         style="fill:#83a5b3"
         d="m 32.375,13.823 c 1.451,-0.588 2.902,-0.541 3.318,-0.541 2.082,0 4.596,1.82 4.596,4.81 0,2.54 -2.059,4.599 -4.596,4.599 l -7.234,0 c -0.777,0 -1.406,0.631 -1.406,1.409 0,0.774 0.629,1.403 1.406,1.403 l 7.229,0 c 4.172,0 7.556,-3.381 7.556,-7.555 0,0 0.036,-7.546 -7.902,-7.546 C 33.625,3.333 27.008,2.974 25.154,3.473 23.139,1.47 19.789,0 16.404,0 9.686,0 4.184,5.192 3.688,11.783 1.484,13.052 0,15.429 0,18.153 c 0,4.06 3.289,7.35 7.348,7.35 l 6.99,0 c 0.639,0 1.236,-0.688 1.236,-1.406 0,-0.777 -0.631,-1.406 -1.406,-1.406 l -6.186,0 c -2.742,0 -4.768,-1.987 -4.768,-4.558 0,-2.099 1.332,-3.939 3.416,-4.567 0.248,-9.922 8.963,-10.43 9.932,-10.43 2.879,0 5.734,1.413 7.572,3.504 3.716,-1.222 8.811,1.643 8.241,7.183 z"
         id="path6" /><g
         transform="matrix(0.50553233,0,0,0.51984468,11.080824,3.8438166)"
         id="Layer_1-3"><g
           id="g13"
           transform="matrix(1.0007533,0,0,1.0042892,-12.024105,15.794121)"><path
             id="path15"
             d="m 16.954,48 c -4.4,0 -6.2,-3.118 -4,-6.928 L 28,15.012 c 2.2,-3.811 5.8,-3.811 8,0 l 15.046,26.06 c 2.2,3.811 0.4,6.928 -4,6.928 l -30.092,0 z"
             style="fill:#f5cf87" /></g><g
           id="g17"
           transform="matrix(1,0,0,1.0042892,-11.389831,15.794121)"><path
             id="path19"
             d="m 34,32 c 0,1.105 -0.895,2 -2,2 l 0,0 c -1.105,0 -2,-0.895 -2,-2 l 0,-8 c 0,-1.105 0.895,-2 2,-2 l 0,0 c 1.105,0 2,0.895 2,2 l 0,8 z"
             style="fill:#4f5d73" /></g><g
           id="g21"
           transform="matrix(1,0,0,1.0042892,-11.389831,15.794121)"><path
             id="path23"
             d="m 34,40 c 0,1.105 -0.895,2 -2,2 l 0,0 c -1.105,0 -2,-0.895 -2,-2 l 0,0 c 0,-1.105 0.895,-2 2,-2 l 0,0 c 1.105,0 2,0.895 2,2 l 0,0 z"
             style="fill:#4f5d73" /></g></g></g></g></svg>