<!DOCTYPE svg PUBLIC "-//W3C//DTD SVG 20010904//EN" "http://www.w3.org/TR/2001/REC-SVG-20010904/DTD/svg10.dtd">
<svg version="1.0" xmlns="http://www.w3.org/2000/svg" width="30px" height="30px" viewBox="0 0 2000 2000" preserveAspectRatio="xMidYMid meet">
<g id="layer1" fill="#969696" stroke="none">
 <path d="M847 1502 c-21 -23 -22 -56 -2 -72 13 -11 196 -38 263 -40 18 0 22 -6 22 -33 0 -60 63 -90 94 -45 20 28 21 127 2 153 -11 16 -41 22 -162 37 -188 22 -197 22 -217 0z"/>
 <path d="M852 1354 c-23 -16 -30 -58 -12 -69 27 -16 3 -25 -70 -25 -46 0 -94 -6 -113 -14 -39 -17 -92 -71 -106 -109 -28 -73 0 -164 65 -213 47 -36 144 -46 174 -19 41 38 14 79 -58 88 -73 9 -107 60 -78 116 20 37 32 41 124 41 59 0 73 -3 64 -12 -31 -31 4 -93 49 -86 23 3 149 138 149 160 0 14 -142 158 -156 158 -5 0 -20 -7 -32 -16z"/>
 <path d="M1067 1242 c-23 -26 -21 -58 5 -76 17 -12 50 -16 145 -16 143 0 163 -10 163 -78 0 -44 -19 -67 -65 -78 -61 -14 -82 -55 -47 -87 42 -39 143 -5 187 62 50 75 45 158 -13 223 -54 60 -81 68 -230 68 -112 0 -131 -2 -145 -18z"/>
 <path d="M1150 1110 c-19 -19 -20 -33 -20 -219 l0 -199 -93 -31 c-50 -17 -95 -31 -100 -31 -4 0 -7 78 -7 173 0 121 -4 177 -12 185 -18 18 -53 15 -71 -6 -15 -16 -17 -48 -17 -234 0 -195 2 -216 18 -231 10 -10 25 -17 33 -17 35 0 325 104 342 122 15 18 17 45 17 244 0 211 -1 225 -20 244 -11 11 -27 20 -35 20 -8 0 -24 -9 -35 -20z"/>
 </g>

</svg>