<?xml version="1.0" encoding="UTF-8" standalone="no"?>
<svg
   xmlns:dc="http://purl.org/dc/elements/1.1/"
   xmlns:cc="http://creativecommons.org/ns#"
   xmlns:rdf="http://www.w3.org/1999/02/22-rdf-syntax-ns#"
   xmlns:svg="http://www.w3.org/2000/svg"
   xmlns="http://www.w3.org/2000/svg"
   xmlns:sodipodi="http://sodipodi.sourceforge.net/DTD/sodipodi-0.dtd"
   xmlns:inkscape="http://www.inkscape.org/namespaces/inkscape"
   height="100"
   width="100"
   xml:space="preserve"
   viewBox="0 0 100 100"
   y="0px"
   x="0px"
   id="Layer_1"
   version="1.1"
   inkscape:version="0.91 r"
   sodipodi:docname="GOES.svg"><sodipodi:namedview
     pagecolor="#ffffff"
     bordercolor="#666666"
     borderopacity="1"
     objecttolerance="10"
     gridtolerance="10"
     guidetolerance="10"
     inkscape:pageopacity="0"
     inkscape:pageshadow="2"
     inkscape:window-width="1600"
     inkscape:window-height="827"
     id="namedview39"
     showgrid="false"
     inkscape:zoom="2.36"
     inkscape:cx="42.584746"
     inkscape:cy="50"
     inkscape:window-x="0"
     inkscape:window-y="0"
     inkscape:window-maximized="1"
     inkscape:current-layer="Layer_1" /><metadata
     id="metadata57"><rdf:RDF><cc:Work
         rdf:about=""><dc:format>image/svg+xml</dc:format><dc:type
           rdf:resource="http://purl.org/dc/dcmitype/StillImage" /><dc:title></dc:title></cc:Work></rdf:RDF></metadata><defs
     id="defs55" /><g
     transform="translate(0,-404)"
     id="g23" /><g
     transform="translate(0,-404)"
     id="g25" /><g
     transform="translate(0,-404)"
     id="g27" /><g
     transform="translate(0,-404)"
     id="g29" /><g
     transform="translate(0,-404)"
     id="g31" /><g
     transform="translate(0,-404)"
     id="g33" /><g
     transform="translate(0,-404)"
     id="g35" /><g
     transform="translate(0,-404)"
     id="g37" /><g
     transform="translate(0,-404)"
     id="g39" /><g
     transform="translate(0,-404)"
     id="g41" /><g
     transform="translate(0,-404)"
     id="g43" /><g
     transform="translate(0,-404)"
     id="g45" /><g
     transform="translate(0,-404)"
     id="g47" /><g
     transform="translate(0,-404)"
     id="g49" /><g
     transform="translate(0,-404)"
     id="g51" /><g
     id="g4228"><ellipse
       ry="43.925957"
       rx="41.888954"
       style="fill:#162d50;fill-opacity:1"
       cx="41.888954"
       cy="56.074043"
       id="circle5" /><path
       id="path11"
       d="m 9.1560557,42.032138 c -0.1373408,0.09601 -0.3433521,0.168023 -0.5493633,0.21603 -0.091561,0.432058 -0.160231,0.840114 -0.2289014,1.248169 0.3662422,-0.408055 0.6409239,-0.936127 0.7782647,-1.464199 z"
       style="fill:#84dbff"
       inkscape:connector-curvature="0" /><path
       id="path13"
       d="m 13.619633,23.885678 c 0.09156,-0.120017 0.13734,-0.264036 0.183121,-0.408056 -0.320462,0.288039 -0.618034,0.600082 -0.915606,0.888121 0.274682,-0.04801 0.549364,-0.192026 0.732485,-0.480065 z"
       style="fill:#84dbff"
       inkscape:connector-curvature="0" /><path
       id="path15"
       d="m 9.2705064,41.432057 c -0.02289,0.192026 -0.06867,0.408055 -0.1144507,0.600081 0.2289014,-0.168022 0.3204619,-0.384052 0.1144507,-0.600081 z"
       style="fill:#84dbff"
       inkscape:connector-curvature="0" /><g
       id="g4185"><path
         inkscape:connector-curvature="0"
         id="path7"
         d="m 66.28984,20.381202 c -0.206011,0.312043 -0.389132,0.624085 -0.640924,0.840114 -1.602309,1.392189 -3.753982,-1.344182 -5.836985,-1.152156 -1.442079,0.120016 -2.426355,1.656225 -3.822653,2.112287 -1.73965,0.552074 -3.914214,-0.624085 -5.310512,0.600081 -1.121617,0.984133 -1.144507,3.09642 -2.540805,3.600488 -0.640924,0.216029 -1.350518,0 -1.991442,0.192026 -1.304738,0.384052 -1.693871,2.280309 -2.929938,2.832384 -0.732484,0.336046 -1.556529,0.120017 -2.334794,0.09601 -0.778265,-0.024 -1.739651,0.264036 -1.945662,1.056144 -0.206011,0.7441 0.297572,1.704231 -0.251791,2.208299 -0.366242,0.312042 -0.892716,0.168023 -1.373409,0.14402 -1.876991,-0.14402 -3.43352,2.256305 -2.609475,4.032546 1.6252,0.384052 3.41063,0.744101 4.898489,-0.024 1.350518,-0.696094 2.174563,-2.160293 3.2504,-3.288446 1.075836,-1.128153 2.884157,-1.872254 4.051554,-0.864117 -0.412022,2.088283 2.174563,4.008544 3.914214,2.904394 0.09156,1.752237 2.220343,3.000407 3.685312,2.13629 0.04578,1.224166 -1.007166,2.232302 -2.128783,2.520341 -1.121617,0.288039 -2.311904,0.024 -3.43352,-0.240032 0.183121,1.464198 -1.51075,2.544345 -2.907048,2.352319 -1.442079,-0.21603 -2.609476,-1.248169 -3.845543,-2.016274 -1.464969,-0.936127 -3.799763,-0.81611 -5.150281,0.312043 -0.297572,0.240032 -0.595144,0.456062 -0.961386,0.576078 -0.640924,0.192026 -1.350518,0 -2.014332,0.09601 -1.69387,0.240032 -2.609476,2.160293 -3.090169,3.864524 -0.595143,2.016273 -0.984276,4.200569 -0.274681,6.168836 0.892715,2.496339 3.593751,4.05655 6.134557,3.744508 1.098726,-0.144019 2.243233,-0.576078 3.250399,-0.09601 0.709594,0.336046 1.190287,1.080147 1.55653,1.800244 3.135948,6.216843 1.579419,14.23393 4.99005,20.282751 0.389132,0.696094 0.892715,1.392189 1.968551,1.080146 0.526474,-0.168023 0.961386,-0.528071 1.281848,-0.984133 1.419189,-2.016274 2.815487,-4.032547 4.234676,-6.04882 0.251791,-0.360049 0.503583,-0.720098 0.618033,-1.152157 0.137341,-0.528071 0.02289,-1.128153 0.228902,-1.656224 0.137341,-0.336046 0.434912,-0.600082 0.663814,-0.888121 1.991442,-2.400325 0.549363,-6.360862 1.945662,-9.169243 0.663814,-1.320179 1.922771,-2.352319 2.678146,-3.576485 0.457802,-0.744101 0.183121,-1.704231 -0.526473,-2.160293 -0.663814,-0.408055 -1.213178,-1.080147 -1.739651,-1.704231 -1.945662,-2.376322 -3.982884,-4.968674 -4.372016,-8.089097 1.373408,-0.288039 0.892715,-0.192026 2.243233,-0.480065 0.640924,2.280309 1.67098,4.416599 2.998608,6.336859 0.732485,1.056143 1.991442,2.13629 3.090169,1.560212 l 0.206011,-1.512205 c 0.709594,-0.264036 1.396299,-0.528072 2.105893,-0.792108 0.595143,-0.768104 0.02289,-1.968267 -0.755375,-2.568348 -0.938495,-0.744101 -2.197453,-1.152156 -2.495025,-2.544345 -0.160231,-0.816111 0.320462,-1.512205 1.098727,-1.440195 0.686704,0.07201 0.961386,0.81611 1.396298,1.320179 0.640924,0.696094 1.64809,0.81611 2.563696,1.03214 2.105892,0.480065 4.051554,1.680227 5.516523,3.336452 1.213177,1.752238 2.128783,3.696501 2.746817,5.760781 0.06867,0.264036 0.320462,0.456062 0.595143,0.432059 0,0 0,0 0.02289,0 0.366243,-0.024 0.640924,-0.360049 0.549364,-0.744101 -0.183121,-0.936127 0.251791,-2.040277 0.709594,-2.952401 0.824045,-1.680227 2.289014,-3.648494 4.005774,-3.048413 -0.160231,-0.336045 -0.04578,-0.816111 0.251792,-1.03214 0.755374,-0.576078 1.602309,-0.024 2.289013,0.792108 C 80.435945,35.695279 74.461619,26.526036 66.28984,20.381202 Z"
         style="fill:#008080" /><path
         inkscape:connector-curvature="0"
         style="fill:#008080"
         d="m 1.8769918,43.136288 c 1.8083209,-1.10415 4.0286643,-1.320179 6.0658866,-0.864117 0.2060112,0.04801 0.4578027,0.04801 0.6867041,0 0.5035831,-2.376322 1.4420785,-4.776648 3.5937515,-5.424736 0.503583,-0.144019 1.052947,-0.192026 1.533639,-0.456062 0.389133,-0.240032 0.663814,-0.624084 0.961386,-0.984133 1.442079,-1.728234 3.433521,-2.928397 5.562304,-3.360456 -0.320462,-1.440195 1.602309,-2.136289 3.021498,-2.184296 0.389132,-0.792107 0,-1.728234 -0.366242,-2.520342 -0.503583,-1.03214 -1.052947,-2.06428 -1.899882,-2.784377 -0.846935,-0.720098 -2.105892,-1.056143 -3.067278,-0.504069 -0.801155,0.456062 -1.258958,1.392189 -1.945662,2.016274 -1.258957,1.128153 -3.31907,1.056143 -4.509357,-0.14402 -4.3720164,4.848658 -7.6910865,10.729455 -9.6138581,17.258341 -0.04578,-0.04801 -0.04578,-0.04801 -0.02289,-0.04801 z"
         id="path19" /><path
         inkscape:connector-curvature="0"
         style="fill:#008080"
         d="m 7.9886587,54.609844 c 0.3662422,0.168023 0.6867041,0.432059 0.8927153,0.792107 0.7553746,1.320179 -0.5951435,2.352319 -1.2818477,3.456469 -1.5336392,2.424329 0.091561,5.712775 2.1287828,7.657039 1.3734079,1.344182 3.0443879,2.544345 3.6395319,4.416598 0.343352,1.10415 0.274682,2.304313 0.297572,3.480472 0.04578,3.720505 0.984276,7.369 1.922771,10.969488 0.274682,1.008137 0.549364,2.088283 1.419189,2.712368 0.457803,0.336045 1.052946,0.480065 1.57942,0.264036 1.098726,-0.456062 1.075836,-1.920261 0.663814,-2.976404 -0.366243,-0.96013 -0.961386,-1.872254 -0.961386,-2.880391 0.02289,-2.06428 2.449245,-4.032546 1.396298,-5.808787 l 0,0 c 2.220344,0.120016 4.097335,-1.728235 4.120225,-4.080554 l 0,-0.912123 c 1.281848,0.624084 2.678146,-0.792108 3.044388,-2.232303 0.366243,-1.440195 0.251792,-3.02441 0.984276,-4.296583 0.297572,-0.480065 0.686704,-0.912123 0.869826,-1.464198 0.434912,-1.392189 -0.846936,-2.736371 -2.151673,-3.24044 C 25.247823,59.96257 23.759964,59.81855 22.684127,58.882423 22.066094,58.330349 21.654071,57.562244 21.150488,56.914157 19.82286,55.137916 17.808528,54.081772 15.885756,53.073636 15.176162,52.713587 14.443678,52.329535 13.665413,52.233522 12.154664,52.041496 10.666805,52.857606 9.1331656,52.833603 7.9886587,52.8096 6.7754813,51.77746 6.6610307,50.74532 6.5923602,50.193245 6.226118,49.737183 5.7683153,49.473147 4.9900506,49.017086 4.4177971,48.080959 4.4177971,47.144832 c 0,-0.432059 -0.2975718,-0.840114 -0.7095942,-0.888121 l -0.02289,0 c -0.3891323,-0.04801 -0.7553745,0.21603 -0.8469351,0.600082 -0.160231,0.744101 -1.0758365,1.320179 -1.8083209,1.03214 -0.11445068,-0.04801 -0.22890137,-0.09601 -0.32046193,-0.168023 -0.20601124,1.080146 -0.3662422,2.184296 -0.48069289,3.288446 0.3662422,0.192026 0.75537455,0.360049 1.12161672,0.528071 l 6.6381401,3.072417 z"
         id="path21" /></g><g
       id="g4299"
       transform="matrix(0.25011042,-0.21126382,0.23366315,0.22546284,-82.538468,159.2408)"><rect
         x="-11.530384"
         y="602.99695"
         transform="matrix(0.00136237,-0.99999907,0.99995041,-0.00995845,0,0)"
         style="fill:#9b9da6"
         width="17.41748"
         height="5.9675708"
         id="rect9" /><rect
         x="-11.528405"
         y="562.22113"
         transform="matrix(0.00136237,-0.99999907,0.99995041,-0.00995845,0,0)"
         style="fill:#9b9da6"
         width="17.41748"
         height="5.9675708"
         id="rect11" /></g><rect
       x="-104.7266"
       y="6.317102"
       transform="matrix(-0.71867173,-0.69534951,0.75755687,-0.65276916,0,0)"
       style="fill:#8ec1d6"
       width="33.955746"
       height="24.438038"
       id="rect13" /><rect
       id="rect17"
       height="2.4687121"
       width="25.17738"
       style="fill:#b7b9c0"
       transform="matrix(-0.71935125,-0.69464651,0.74114378,-0.67134633,0,0)"
       y="16.39328"
       x="-43.406693" /><path
       style="fill:#dcdee2"
       d="M 100,52.783134 74.203361,27.823647 54.211797,45.050087 80.008435,70.009401 100,52.783134 Z M 89.351087,59.411861 78.541514,48.953088 86.319198,42.25124 97.128771,52.710013 89.351089,59.411858 Z M 84.926883,40.904103 77.149199,47.605951 66.339628,37.147178 74.117306,30.44533 84.926881,40.904105 Z M 64.860715,38.421187 75.670287,48.87996 67.892418,55.581805 57.082845,45.123033 l 7.77787,-6.701846 z m 4.424387,18.507938 7.777682,-6.701848 10.809572,10.458775 -7.777691,6.702021 -10.809563,-10.458948 z"
       id="path33"
       inkscape:connector-curvature="0" /><g
       id="g4303"
       transform="matrix(0.25011042,-0.21126382,0.23366315,0.22546284,-82.538468,159.2408)"><polygon
         transform="matrix(0.39023819,0.38689794,-0.39130299,0.39468126,584.52429,-246.54441)"
         id="polygon35"
         points="235.277,365.636 365.636,235.277 321.179,190.821 276.723,146.365 146.365,276.723 190.821,321.18 "
         style="fill:#edeef0" /><rect
         id="rect37"
         height="101.88309"
         width="34.742115"
         style="fill:#dcdee2"
         transform="matrix(0.00136237,-0.99999907,0.99995041,-0.00995845,0,0)"
         y="533.28046"
         x="5.897893" /></g><text
       xml:space="preserve"
       style="font-style:normal;font-weight:normal;font-size:4.76818228px;line-height:125%;font-family:sans-serif;letter-spacing:0px;word-spacing:0px;fill:#000000;fill-opacity:1;stroke:none;stroke-width:1px;stroke-linecap:butt;stroke-linejoin:miter;stroke-opacity:1"
       x="9.5719109"
       y="49.403099"
       id="text4318"
       transform="matrix(0.72847626,-0.63282936,0.73761053,0.731964,0,0)"
       sodipodi:linespacing="125%"><tspan
         id="tspan4320"
         x="9.5719109"
         y="49.403099"
         style="font-style:normal;font-variant:normal;font-weight:normal;font-stretch:normal;font-family:'ADAM.CG PRO';-inkscape-font-specification:'ADAM.CG PRO'">GOES-13</tspan></text>
</g></svg>