<?xml version="1.0" encoding="UTF-8" standalone="no"?>
<svg
   xmlns:dc="http://purl.org/dc/elements/1.1/"
   xmlns:cc="http://creativecommons.org/ns#"
   xmlns:rdf="http://www.w3.org/1999/02/22-rdf-syntax-ns#"
   xmlns:svg="http://www.w3.org/2000/svg"
   xmlns="http://www.w3.org/2000/svg"
   xml:space="preserve"
   style="enable-background:new 0 0 512 512;"
   viewBox="0 0 512 512"
   y="0px"
   x="0px"
   id="Layer_1"
   version="1.1">


  <defs id="defs41" />

     <path
     id="path3"
     d="M353.613,133.606c-39.327-66.81-77.99-121.944-79.618-124.258C269.876,3.487,263.163,0,256.001,0  c-7.163,0-13.875,3.487-17.994,9.347c-1.626,2.314-40.291,57.448-79.618,124.258C103.415,226.999,76.69,292.12,76.69,332.691  C76.69,431.563,157.128,512,256.001,512S435.31,431.563,435.31,332.691C435.31,292.12,408.587,226.997,353.613,133.606z"
     style="fill:#2A79AB;" />
     <path
     id="path5"
     d="M257.086,0.066C256.724,0.048,256.366,0,256.001,0c-7.161,0-13.875,3.487-17.994,9.347  c-1.626,2.314-40.291,57.448-79.618,124.258C103.415,226.999,76.69,292.12,76.69,332.691C76.69,431.563,157.128,512,256.001,512  c0.362,0,0.723-0.012,1.085-0.013V0.066z"
     style="fill:#3399D9;" />
</svg>