<?xml version="1.0" encoding="UTF-8" standalone="no"?>
<svg
   xmlns:dc="http://purl.org/dc/elements/1.1/"
   xmlns:cc="http://creativecommons.org/ns#"
   xmlns:rdf="http://www.w3.org/1999/02/22-rdf-syntax-ns#"
   xmlns:svg="http://www.w3.org/2000/svg"
   xmlns="http://www.w3.org/2000/svg"
   viewBox="0 0 100 100"
   height="100"
   width="100"
   xml:space="preserve"
   version="1.1"
   id="svg2"><metadata
     id="metadata8"><rdf:RDF><cc:Work
         rdf:about=""><dc:format>image/svg+xml</dc:format><dc:type
           rdf:resource="http://purl.org/dc/dcmitype/StillImage" /><dc:title></dc:title></cc:Work></rdf:RDF></metadata><defs
     id="defs6"><clipPath
       id="clipPath22"
       clipPathUnits="userSpaceOnUse"><path
         id="path24"
         d="M 0,540 720,540 720,0 0,0 0,540 Z" /></clipPath></defs><g
     transform="matrix(1.25,0,0,-1.25,0,100)"
     id="g10"><g
       style="fill:#ffffff"
       transform="matrix(0.32406376,0,0,0.3024266,42.749519,71.762808)"
       id="g14"><path
         id="path16"
         style="fill:#ffffff;fill-opacity:1;fill-rule:nonzero;stroke:none"
         d="M 0,0 0.018,-0.498 0.196,-0.603 0.448,-0.572 0.646,-0.64 0.859,-0.854 1.142,-1.211 1.197,-1.53 0.11,-1.906 l -0.215,-0.516 0.197,-0.59 0.554,-0.394 0.176,0.056 0.143,0.177 0.177,0.179 0.308,0.018 0.196,-0.128 0.227,-0.228 0.142,-0.307 -0.283,-0.854 0.075,-0.788 0.196,-0.769 0.226,-0.535 0.461,-0.534 0.647,-0.497 0.657,-0.339 0.555,-0.14 0.43,-0.253 -0.075,-0.554 -0.461,-0.909 -0.066,-0.621 0.029,-0.805 0.129,-0.75 0.333,-0.75 0.024,-0.356 -0.038,-0.677 0.087,-0.431 0.376,-0.601 0.141,-0.345 -0.014,-0.337 -0.219,-0.603 0.023,-0.356 0.173,-0.357 0.289,-0.216 0.252,0.037 0.265,1.089 0.391,0.227 0.463,-0.069 0.411,-0.288 0.104,-0.195 0.185,-0.463 0.105,-0.196 0.178,-0.179 0.467,-0.319 0.245,-0.253 0.075,-0.282 -0.215,-0.252 -0.358,-0.142 -0.619,-0.141 -0.235,-0.178 -0.343,-0.358 -0.443,-0.342 -0.216,-0.283 0.196,-0.179 0.751,-0.073 0.61,-0.124 0.498,-0.336 0.319,-0.469 0.066,-0.565 -0.294,-0.325 -1.217,-0.676 -0.27,-0.395 0.092,-0.356 0.196,-0.141 0.216,-0.075 0.087,-0.067 0.146,0 0.676,-0.553 0.677,-0.731 0.197,0 0.122,0.552 0.534,-0.485 0.056,-0.675 -0.283,-0.733 -0.786,-1.21 0.011,-0.448 0.468,-0.961 0.178,-1.394 -0.122,-1.463 -0.413,-1.334 -0.656,-0.984 -0.844,-0.608 -0.141,-0.246 -0.03,-0.393 0.16,-0.234 0.173,-0.161 0.091,-0.177 0.252,-0.319 0.461,-0.142 0.327,-0.326 -0.237,-0.819 -1.964,-3.016 -0.444,-1.07 -0.109,-0.659 0.023,-0.694 0.247,-0.554 0.534,-0.233 0.289,-0.265 -0.221,-0.625 -0.369,-0.714 -0.216,-0.535 0.124,-0.534 0.325,-0.572 0.357,-0.449 0.32,-0.179 0.16,-0.3 -1.286,-2.103 0.019,-0.608 0.105,-0.573 -0.019,-0.609 -0.392,-0.675 -0.198,-0.553 0.271,-0.444 0.41,-0.521 0.216,-0.733 -0.146,-0.386 -0.676,-1.285 -0.284,-0.271 -0.055,-0.3 -0.646,-1.858 -0.048,-0.429 0.011,-0.48 0.062,-0.319 0.388,-0.216 0.337,-0.282 0.251,-0.505 0.377,-0.393 0.982,-0.319 0.321,0 0.496,0.216 0.216,0.017 0.246,-0.141 0.412,-0.449 0.141,-0.105 0.357,0.068 0.467,0.411 0.307,-0.017 0.296,-0.067 0.234,0.03 0.356,0.197 -0.069,0.036 0,0.178 0.057,0.178 0.066,0.112 0.106,0.012 0.29,-0.104 0.103,0 0.59,0.215 0.394,-0.036 0.393,-0.107 0.591,-0.035 0.319,0.103 0.234,0.13 0.209,0.049 0.27,-0.123 0.442,-1.267 0.356,-0.645 0.382,-0.368 0.515,-0.13 0.69,0.111 0.271,0.086 0.11,0.092 0.16,0.049 0.369,-0.049 0.222,-0.092 0.688,-0.443 1.131,0.265 0.264,0 0.607,-0.253 0.321,-0.012 0.405,-0.165 0.983,-0.604 0.185,-0.017 0.105,0.196 0.252,-0.055 0.443,-0.252 0.338,0 0.141,0.166 0.056,0.209 0.037,0.092 0.46,-0.036 1.304,-0.32 0.572,0.086 0.73,0.627 0.395,0.085 0.14,-0.122 0.093,-0.48 0.196,-0.179 0.284,-0.017 0.176,0.086 0.162,0.11 0.227,0.056 0.485,-0.073 0.878,-0.339 0.266,-0.13 0.02,-0.066 0.034,-0.142 0.135,-0.13 0.523,-0.086 0.161,-0.054 0.179,-0.02 0.214,0.093 0.356,0.086 0.941,-0.067 0.486,0.03 0.731,-0.228 0.308,-0.017 0.331,0.215 -0.037,-0.504 0.148,-0.123 0.245,0.037 0.289,0 0.517,-0.27 0.302,-0.02 0.319,0.825 0.343,-0.48 0.302,-0.788 0.074,-0.412 0.678,-0.103 0.392,0.14 0.675,0.732 0.197,0.302 0.038,0.196 0.104,0.057 0.412,-0.144 0.216,0.02 0.958,0.301 0.221,-0.055 0.032,-0.122 0.072,-0.074 0.302,0.196 0.124,0.214 0.25,0.572 0.142,0.124 0.504,-0.247 0.996,-1.161 0.467,-0.105 0.123,0.245 -0.306,0.572 0.183,0.196 0.333,0.087 0.233,0.112 0.984,0.731 0.319,0.356 0.504,0.892 0.068,0.073 0.215,0.106 0.111,0.14 0.159,0.498 0.086,0.197 0.443,0.664 0.272,0.282 0.306,0.27 0.516,0.161 2.103,0.375 0.429,-0.037 0.302,-0.338 0.768,-1.93 0.694,-1.033 0.891,-0.855 1.643,-0.984 0.872,-0.835 0.498,-0.319 0.518,-0.129 5.053,-0.247 0.391,0.105 0.37,0.214 0.392,-0.196 0.431,-0.338 0.467,-0.234 1.822,-0.179 0.551,-0.319 0.068,0.216 0.326,0.658 1.463,-2.017 1.192,-0.892 0.301,-0.336 0.253,-0.769 0.086,-2.656 0.216,-1.161 0.498,-1.015 0.768,-0.824 0.976,-0.552 0.591,-0.216 0.392,-0.227 0.234,-0.375 0.087,-0.646 -0.038,-0.245 -0.159,-0.523 -0.012,-0.283 0.049,-0.271 0.196,-0.516 0.02,-0.263 -0.303,-1.054 -0.503,-0.927 -0.388,-0.965 0.068,-1.18 0.663,-2.441 0,-0.552 -0.159,-1.071 0.05,-0.535 0.786,-0.891 0.308,-0.503 0.16,-0.602 -0.149,-1.163 0.037,-0.535 0.308,-0.411 0.817,-0.498 0.105,-0.282 0.646,-2.354 -0.019,-0.536 -0.676,-1.451 -0.093,-0.534 0.198,-0.713 0.89,-0.96 0.321,-0.59 -0.038,-0.982 -0.798,-1.766 0.074,-1.105 0.208,-1.071 -0.037,-1.143 0.111,-1.07 0.572,-0.836 1.296,-1.394 0.627,-1.98 0.449,-6.172 0.283,-0.818 0.659,-0.711 0.908,-0.412 1.845,-0.143 0.923,-0.215 0.023,0 1.033,-0.392 1.071,-0.215 1.032,0.092 0.996,0.515 0.023,0 0.75,0.393 1.851,-0.018 0.891,0.264 0.503,0.234 0.997,0.055 0.503,0.068 0.493,0.309 0.646,0.853 0.374,0.393 1.905,1.088 3.836,1.334 0.506,0.271 0.725,0.805 0.449,0.209 0.785,-0.209 4.973,-2.84 0.61,-0.431 1.623,-2.262 2.747,-1.658 0.835,-0.463 -0.602,-0.485 -1.032,-0.769 -0.701,-0.908 -0.283,-0.979 0.074,-0.515 0.394,-1.02 0.135,-1.193 0.233,-0.393 0.677,-0.93 0.252,-0.73 0.393,-0.996 -0.03,-0.93 -0.27,-1 -0.377,-0.695 -1.142,-1.715 -0.339,-1.033 0,-0.977 0.405,-2.195 -0.011,-1.057 -1.464,-4.437 -0.835,-1.231 -0.234,-0.523 -1.339,-5.846 -0.272,-1.107 -0.049,-0.606 0.012,-0.554 0.234,-0.627 0.75,-1.231 0.093,-0.601 -0.253,-0.573 -0.997,-0.927 -0.356,-0.571 -0.645,-2.109 -0.731,-1.156 -0.552,-0.713 -0.838,-0.768 -0.663,-1.211 -0.332,-1.125 -0.062,-0.375 -0.031,-0.695 0.124,-0.713 0.288,-0.59 0.21,-0.607 -0.069,-0.783 -0.178,-0.768 0,-0.072 -0.072,-0.573 0.478,-1.05 0.075,-0.639 -0.444,-0.309 -1.033,0.055 -0.269,-0.301 0,-0.861 0.535,-1.689 0.091,-0.647 0.135,-0.424 0.664,-0.822 0.197,-0.395 -0.056,-0.712 -0.287,-0.59 -0.321,-0.498 -0.141,-0.536 0.232,-1.462 0.021,-0.61 -0.253,-0.498 -0.252,-0.066 -0.713,-0.057 -0.246,-0.109 -0.179,-0.356 0.031,-0.32 0.092,-0.34 0.142,-1 0.32,-1.033 -0.012,-0.732 -0.609,-2.065 0.104,-0.504 0.541,-0.639 0.105,-0.431 -0.197,-0.358 -0.338,-0.478 -0.234,-0.43 -0.048,-0.246 0.067,-0.646 0,-1.461 -0.449,-1.035 -0.036,-0.161 -0.087,-0.195 -0.282,-1.978 -0.147,-0.536 -0.247,-0.449 -0.91,-1.013 -0.822,-0.702 -0.443,-0.515 -0.284,-0.604 0.036,-0.447 0.161,-0.463 0.087,-0.607 -0.019,-0.75 -0.13,-0.801 -0.227,-0.731 -0.412,-0.541 -0.301,-0.14 -0.16,0.092 -0.13,0.16 -0.233,0.123 -1.297,0 -0.694,-0.18 -0.503,-0.459 -0.319,-0.666 -0.372,-1.492 -0.22,-0.572 -0.283,-0.485 -0.429,-0.517 -0.481,-0.215 -1.444,-0.123 -0.59,-0.233 -1.912,-1.906 -0.191,-0.555 0.412,-1.283 -0.11,-0.713 -0.468,-0.394 -0.689,-0.123 -1.16,0.049 -0.449,0.148 -0.554,0.301 -0.621,0.252 -0.718,0 -1.427,-0.785 -1.372,-0.178 -0.583,-0.18 -0.522,-0.34 -0.498,-0.55 -0.357,-0.627 -0.178,-0.659 -0.075,-1.519 -0.298,-0.535 -0.714,-0.053 -0.824,0.072 -0.591,-0.054 -0.331,-0.518 -0.111,-0.676 -0.178,-0.59 -0.487,-0.263 -0.781,-0.2 -0.018,-0.484 0.713,-1.352 0.123,-0.375 0.056,-0.357 -0.056,-0.338 -0.392,-0.681 0.023,-0.209 0.069,-0.27 -0.019,-0.463 -0.283,-0.748 -0.479,-0.555 -0.628,-0.355 -0.732,-0.131 -0.816,-0.639 -1.057,-1.248 -1.089,-0.873 -1.783,0.977 -0.779,0.217 -0.363,0.214 -0.253,0.321 -0.442,1.248 -0.441,0.607 -0.591,0.233 -0.677,-0.016 -0.713,-0.111 -0.713,-0.02 -0.646,0.131 -1.986,0.762 -0.724,0.146 -0.75,0.049 -0.75,-0.406 -0.554,-0.428 -1.068,-1.23 -0.678,-0.307 -0.842,-0.229 -0.676,-0.375 -0.159,-0.712 0.104,-0.891 -0.104,-0.732 -0.339,-0.665 -0.571,-0.638 -0.572,-0.842 -0.411,-1.016 -0.517,-0.785 -0.941,-0.217 -0.934,0.375 -0.885,0.715 -0.75,0.879 -0.577,0.891 -1.174,1.48 -1.951,0.285 -2.064,-0.591 -1.5,-1.174 -1.082,-0.215 -1.077,0.656 -1.8,1.821 -1.033,0.429 -1.068,-0.121 -1.07,-0.432 -2.914,-1.603 -0.96,-0.215 -1.161,0.055 -0.252,0.029 -0.676,0.02 -0.319,0.111 -0.284,0.16 -0.768,0.676 -0.301,0.141 -1.623,0.449 -0.307,0.16 -0.695,0.695 -0.266,0.178 -0.737,0.195 -0.762,0 -2.98,-0.424 -0.751,0.067 -0.656,0.234 -4.747,2.428 -0.356,0.105 -3,0.639 -1.266,0.432 -1.709,0.375 -0.91,0.373 -2.287,0.48 -0.921,0.039 -1.789,-0.322 -0.425,-0.035 -3.215,0.43 -8.009,-0.715 -2.619,-1.123 -0.127,-0.129 0.127,1.658 -0.055,0.684 -0.356,0.619 -0.732,0.535 -0.394,0.394 -0.178,0.43 0.142,0.945 0.43,0.678 0.657,0.393 1.5,0.248 0.142,0.355 -0.049,0.504 0,0.584 0.067,0.289 0.105,0.264 0.147,0.234 0.172,0.233 0.271,0.16 0.159,-0.141 0.093,-0.232 0,-0.125 0.019,-0.092 0.208,-0.141 0.252,-0.056 0.105,0.16 0.037,0.553 0.054,0.234 0.092,0.252 0.266,0.461 0.533,0.646 0.235,0.461 -0.442,0.395 -0.062,0.428 0.233,0.425 0.468,0.321 1.304,0.341 0.628,0.266 0.281,0.412 0.282,0.301 1.34,0.109 0.395,0.34 -0.185,0.572 -0.554,0.387 -0.332,0.467 0.356,0.711 0.499,0.162 0.515,-0.178 0.498,-0.074 0.394,0.43 -0.11,0.271 -0.228,0.373 -0.035,0.321 0.484,0.14 0.357,0 0.209,0.037 0.124,0.18 0.072,2.551 0.148,0.601 0.136,0.375 0.092,0.037 0.164,-0.105 0.924,-0.176 0.343,0.035 0.16,0.192 -0.091,0.287 -0.159,0.266 -0.144,0.289 -0.023,0.392 0.13,0.106 0.497,0.355 0.184,0.217 -0.166,0.178 -0.253,0.461 -0.171,0.252 -0.675,0.478 -0.15,0.18 -0.121,0.552 0.086,0.504 0.159,0.496 0.092,0.573 0.092,0.265 0.406,0.307 0.111,0.338 -0.713,0.658 -0.112,0.412 0.198,0.516 0.995,1.746 0.147,0.469 0.075,0.533 -0.148,1.051 0,0.517 0.235,0.233 0.479,0.105 0.663,0.289 0.498,0.395 -0.017,0.422 -0.432,0.308 -0.459,0.246 -0.34,0.324 -0.073,0.586 0.283,-0.107 0.253,-0.141 0.159,-0.177 0.103,-0.25 0.259,0.355 0.264,0.676 0.282,1.088 0.303,0.326 1.892,0.693 0.985,0.555 3.404,2.551 0.376,0.515 0,0.43 -1.358,0.406 0.221,0.487 1.03,0.836 0.173,0.252 0.184,0.377 -0.035,0.335 -0.676,0.247 -0.094,0.234 0.094,0.234 0.62,0.233 0.62,0.34 0.591,0.421 0.319,0.467 -0.442,1.088 -0.11,0.621 0.454,0.272 0.53,0.197 0.572,0.428 0.497,0.519 0.307,0.405 -0.307,0.091 -0.284,0.123 -0.232,0.178 -0.173,0.27 0.602,0.947 0.375,0.357 0.622,0.246 0.344,0.038 0.301,-0.018 0.289,0.018 0.264,0.195 0.123,0.254 0.141,0.711 0.056,0.162 0.879,-0.129 0.46,0.016 0.192,0.197 0.127,0.769 0.32,0.235 0.412,0.086 0.339,0.373 0.161,0.572 0.374,2.803 -0.012,0.535 -0.221,0.424 -0.394,0.449 -1.833,1.426 0,0.375 -0.895,2.287 -0.912,0.621 -0.564,0.806 -0.948,2.1 -0.356,0.414 -0.908,0.459 -0.445,0.326 -1.302,1.514 -0.411,0.375 -0.591,0.215 -2.319,0 -0.411,0.14 -0.177,0.321 -0.125,0.375 -0.195,0.269 -0.271,0.055 -0.659,-0.092 -0.288,0.037 -2.053,1.034 -0.357,-0.038 -0.295,0.504 -2.643,1.821 -0.533,-0.02 -0.499,-0.355 -0.825,-0.873 -0.356,-0.252 -0.374,-0.198 -0.32,-0.054 -0.376,0.129 -0.16,0.177 -0.091,0.246 -0.178,0.319 -1.893,2.109 -0.688,0.967 -0.358,0.355 -0.681,0.338 -6.473,1.266 -0.162,0.16 -0.072,0.252 -0.178,0.141 -0.233,0.105 -0.216,0.16 -0.406,0.129 -1.5,0.031 -0.608,0.164 -5.637,4.262 -0.923,0.233 -0.29,0.199 -0.588,0.59 -0.289,0.177 -0.191,0.03 -0.554,0.019 -0.57,0.196 -1.107,0.732 -0.677,0.252 -0.859,0.59 -1.211,0.406 -0.288,0.232 -0.162,0.217 -0.209,0.178 -0.449,0.055 -0.263,0.103 -0.394,0.463 -0.966,0.358 -0.477,0.589 -0.61,1.143 -0.271,0.301 -1.137,1.019 -0.713,0.321 -0.104,0.252 -0.075,0.283 -0.092,0.232 -0.19,0.16 -0.627,0.266 -0.677,0.392 -0.325,0.252 -0.32,0.358 -0.227,0.16 -0.541,0.104 -0.498,0.308 -0.732,0.104 -0.307,0.111 -0.209,0.189 -0.516,0.702 -1.126,1.156 -10.56,6.994 -0.535,0.125 -0.607,-0.057 -1.372,-0.498 -0.714,-0.16 -2.2,-0.074 -2.298,0.363 -0.922,-0.056 -0.289,0.056 -0.302,0.18 -0.572,0.516 -0.327,0.195 -0.263,0.031 -1.051,-0.031 -1.801,0.357 -0.965,0.676 -0.535,0.264 -1.052,0.056 -0.176,0.057 -0.462,1.014 -0.037,0.195 -0.272,0.057 -0.515,0.281 -0.32,0.111 -0.344,0.037 -1.352,-0.072 -0.282,0.072 -0.591,0.516 -0.282,0.088 -2.569,-0.057 -0.615,0.074 -0.838,0.498 -0.995,0.823 -1.069,0.535 -1.125,-0.338 -0.928,0.602 -0.283,0.271 -0.411,0.713 -0.179,0.18 -0.056,0.429 -0.355,0.658 -0.486,0.608 -0.763,0.443 -0.503,0.842 -0.265,0.281 0.265,0.535 0.11,0.713 -0.11,0.646 -0.37,0.284 -0.504,0.178 -0.443,0.392 -0.392,0.45 -0.357,0.281 -0.234,0.037 -0.566,-0.037 -0.221,0 -0.265,0.199 -0.552,0.572 -0.265,0.121 -0.608,0.179 -0.301,0.449 -0.185,0.498 -0.227,0.412 -1.912,0.836 -0.676,0.037 -0.406,0.122 -0.289,0.197 -0.356,0.32 -0.449,0.325 -0.481,0.196 -0.532,0.106 -0.622,0.017 -0.29,0.179 -0.262,0.751 -0.469,0.301 0.02,0.32 0.141,0.357 0.141,0.27 -0.535,0.018 -0.339,0.049 -0.262,0.146 -1.489,1.551 -0.424,0.214 -1.37,0 -0.412,0.106 -0.253,0.158 -0.443,0.524 -0.43,0.282 -0.413,0.178 -0.337,0.29 -0.123,0.547 -0.036,0.59 -0.074,0.375 -0.173,0.306 -0.325,0.369 -0.32,0.272 -0.658,0.373 -0.343,0.322 -0.678,0.964 -0.233,0.234 -3.258,1.997 -1.057,1.156 -0.406,0.609 0,0.141 -0.093,0.141 0.161,0.751 -0.068,0.306 -0.326,0.48 -0.552,1.162 -0.425,0.639 -0.626,0.659 -0.272,0.355 -0.104,0.393 -0.142,0.02 -0.282,0.196 -0.27,0.216 -0.018,0.122 -0.216,0.094 -0.112,0.244 -0.085,0.288 -0.105,0.236 -0.805,0.89 -0.179,0.338 -0.121,0.338 -0.198,0.283 -0.393,0.11 -0.122,0.179 0.356,0.731 -0.554,0.357 0.02,0.411 0.196,0.696 -0.161,0.337 -0.11,0.055 -0.16,-0.017 -0.375,0.085 -0.732,0.321 -0.373,0.324 -0.02,0.406 0.432,0.572 0.159,0.516 -0.235,0.573 -0.656,0.768 -0.16,0.037 -0.197,-0.019 -0.161,0.056 -0.073,0.226 0,0.345 -0.018,0.16 -0.086,0.161 -0.216,0.122 -0.326,0.092 -1.266,0.178 -0.566,0.209 -2.052,1.413 -0.498,0.498 -0.216,0.48 -0.245,0.216 -1.179,0.375 -0.376,0.16 -0.714,0.946 -0.498,0.412 -0.7,0.179 -0.319,0.036 -0.406,0.122 -0.356,0.198 -0.222,0.282 0.055,0.27 0.197,0.283 0.128,0.321 -0.184,0.43 0.197,0 -0.16,0.251 -0.196,0.197 -0.246,0.141 -0.308,0.056 0.676,1.567 0.825,2.994 0.786,2.804 1.286,4.278 1.068,3.553 1.359,4.567 1.014,3.318 1.07,3.659 1.039,3.491 0.941,3.245 0.946,3.215 0.104,2.053 -0.049,4.561 -0.037,3.019 -0.037,2.747 -0.035,2.834 0.251,0.824 1.069,1.623 1.266,1.82 1.304,1.888 1.321,1.893 1.315,1.892 1.304,1.906 0.503,0.731 0.481,0.751 0.48,0.731 0.502,0.75 0.369,0.799 0.375,0.805 0.394,0.805 0.374,0.8 0.825,2.287 0.835,2.28 0.825,2.286 0.817,2.263 0.553,1.536 0.227,0.357 0.487,0.196 2.601,0.405 0.645,0.093 1.37,0.216 1.394,0.214 0.622,0.087 9.958,2.157 9.933,2.159 9.934,2.144 9.939,2.158 4.422,0.941 2.427,0.037 5.531,0.074 5.528,0.067 5.533,0.075 5.531,0.073 2.385,0.03 0.59,-0.141 0.874,-0.621 0.841,-0.608 1.482,-0.911 2.741,-1.696 2.731,-1.69 2.753,-1.697 2.74,-1.697 2.73,-1.69 2.753,-1.696 2.731,-1.698 2.742,-1.709 1.143,-0.713 0.319,-0.356 0.11,-0.449 L -0.143,8.852 -0.086,7.85 0.411,6.066 0.503,5.102 0.43,4.406 0.466,3.103 0.43,2.447 -0.014,0.804 0,0 Z" /></g></g></svg>