<?xml version="1.0" encoding="UTF-8" standalone="no"?>
<svg
   xmlns:dc="http://purl.org/dc/elements/1.1/"
   xmlns:cc="http://creativecommons.org/ns#"
   xmlns:rdf="http://www.w3.org/1999/02/22-rdf-syntax-ns#"
   xmlns:svg="http://www.w3.org/2000/svg"
   xmlns="http://www.w3.org/2000/svg"
   id="svg2"
   viewBox="0 0 12558.889 16651.112"
   style="clip-rule:evenodd;fill-rule:evenodd;image-rendering:optimizeQuality;shape-rendering:geometricPrecision;text-rendering:geometricPrecision"
   version="1.1"
   height="590"
   width="445"
   xml:space="preserve"><metadata
     id="metadata358"><rdf:RDF><cc:Work
         rdf:about=""><dc:format>image/svg+xml</dc:format><dc:type
           rdf:resource="http://purl.org/dc/dcmitype/StillImage" /><dc:title></dc:title></cc:Work></rdf:RDF></metadata><defs
     id="defs4"><style
       id="style6"
       type="text/css"><![CDATA[
    .str0 {stroke:black;stroke-width:49.96}
    .fil23 {fill:none}
    .fil21 {fill:black}
    .fil22 {fill:#996633}
    .fil24 {fill:#CC6633}
    .fil25 {fill:red}
    .fil0 {fill:#FFCC99}
    .fil1 {fill:#FFCF9C}
    .fil2 {fill:#FFD19E}
    .fil3 {fill:#FFD4A1}
    .fil4 {fill:#FFD6A3}
    .fil5 {fill:#FFD9A6}
    .fil6 {fill:#FFDBA8}
    .fil7 {fill:#FFDEAB}
    .fil8 {fill:#FFE0AD}
    .fil9 {fill:#FFE3B0}
    .fil10 {fill:#FFE5B2}
    .fil11 {fill:#FFE8B5}
    .fil12 {fill:#FFEBB8}
    .fil13 {fill:#FFEDBA}
    .fil14 {fill:#FFF0BD}
    .fil15 {fill:#FFF2BF}
    .fil16 {fill:#FFF5C2}
    .fil17 {fill:#FFF7C4}
    .fil18 {fill:#FFFAC7}
    .fil19 {fill:#FFFCC9}
    .fil27 {fill:yellow}
    .fil20 {fill:#FFFFCC}
    .fil26 {fill:white}
   ]]></style></defs><path
     style="fill:#decd87;fill-opacity:1;stroke:#ffffff;stroke-width:0;stroke-opacity:1"
     d="m 6192.8307,16326.006 c -343.73,-293.977 -555.964,-452.587 -797.229,-595.799 -400.268,-237.595 -1183.704,-596.461 -2311.776,-1058.948 -1125.338,-461.366 -1699.769,-754.929 -2100.805,-1073.618 -314.578,-249.984 -569.917,-612.311 -676.933,-960.574 l -60.093,-195.56 51.301,-4722.8132 c 28.216,-2597.547 54.363,-4902.7804 58.105,-5122.7408 l 6.804,-399.9285 160.095,-89.7221 c 305.532,-171.2289 459.036,-276.9654 767.94,-528.9702 430.631,-351.3114 835.022,-800.13269 1163.771,-1291.63645 54.688,-81.76297 103.024,-152.98706 107.414,-158.27571 4.39,-5.28867 92.979,22.67097 196.865,62.13253 186.246,70.74637 874.951,238.60602 1343.284,327.40203 449.87,85.29519 970.705,135.53149 1668.822,160.96341 596.202,21.71924 797.64,19.74031 1395.116,-13.70576 783.535,-43.86141 1133.943,-80.07112 1418.732,-146.6058 106.92,-24.9797 348.779,-72.09016 537.462,-104.68987 188.684,-32.59974 531.789,-106.25042 762.456,-163.66819 230.6663,-57.41778 422.1743,-101.00878 425.5723,-96.86889 3.398,4.13989 99.372,147.42725 213.275,318.41637 256.267,384.70083 377.146,533.63073 700.278,862.78073 264.373,269.2951 757.769,651.0877 1042.091,806.3741 l 149.718,81.7708 -2.159,5098.457 -2.159,5098.4575 -62.937,205.837 c -34.615,113.21 -110.435,298.463 -168.489,411.673 -90.082,175.669 -145.906,246.429 -380.885,482.792 -531.94,535.072 -977.161,757.065 -2676.7633,1334.666 -389.905,132.507 -1155.317,446.479 -1455.341,596.98 -515.638,258.66 -790.557,457.18 -1130.473,816.319 l -184.384,194.812 -158.677,-135.709 z"
     id="path4678" /><g
     transform="translate(-11562.966,-3156.5576)"
     id="g4696"
     style="clip-rule:evenodd;fill-rule:evenodd;image-rendering:optimizeQuality;shape-rendering:geometricPrecision;text-rendering:geometricPrecision"><polygon
       class="fil24"
       points="12390,15086 12390,14893 12390,14699 12418,14422 12584,14394 12750,14422 12888,14394 12999,14422 13221,14422 13359,14422 13525,14394 13664,14422 13802,14422 13913,14394 14079,14477 14217,14450 14383,14450 14632,14450 14743,14422 14826,14394 14826,14533 14771,14616 14771,14782 14799,14865 14771,14948 14688,15003 14494,15086 14300,15059 14106,15031 13968,14976 13802,15003 13664,15059 13470,15086 13359,15031 13138,15003 13082,15003 12944,15003 12805,15086 12612,15114 "
       id="polygon4698"
       style="fill:#cc6633" /><polygon
       class="fil24"
       points="12556,14311 12722,14311 12833,14256 12944,14284 13082,14311 13248,14311 13359,14256 13553,14284 13525,14118 13525,13979 13581,13868 13581,13702 13470,13592 13331,13536 13165,13536 13027,13592 12861,13592 12695,13536 12529,13536 12418,13564 12446,13702 12473,13785 12446,13868 12418,13952 12473,14090 12390,14173 12418,14256 "
       id="polygon4700"
       style="fill:#cc6633" /><polygon
       class="fil24"
       points="14051,14256 14079,14339 14190,14284 14356,14311 14577,14311 14743,14284 14799,14145 14799,13979 14799,13813 14799,13592 14660,13509 14494,13509 14245,13536 14079,13592 13830,13536 13747,13536 13664,13592 13691,13702 13719,13813 13664,13924 13608,14035 13636,14145 13608,14256 13719,14311 13857,14256 "
       id="polygon4702"
       style="fill:#cc6633" /><polygon
       class="fil24"
       points="12944,12650 13110,12623 13414,12623 13581,12650 13830,12650 14023,12650 14328,12650 14522,12623 14771,12650 14799,12761 14799,12927 14799,13038 14743,13149 14771,13259 14826,13509 14660,13453 14439,13398 14328,13453 14162,13509 13968,13481 13774,13398 13581,13453 13359,13370 13248,13398 12916,13453 12722,13453 12529,13398 12418,13453 12390,13315 12390,13149 12473,12983 12390,12927 12446,12650 12722,12650 "
       id="polygon4704"
       style="fill:#cc6633" /><polygon
       class="fil24"
       points="13553,11903 13608,12014 13608,12152 13581,12318 13525,12429 13497,12540 13359,12567 13082,12540 12972,12457 12861,12512 12805,12540 12584,12512 12390,12540 12446,12374 12446,12263 12418,12180 12446,11986 12446,11792 12446,11654 12584,11626 12750,11626 12861,11654 13027,11682 13276,11682 13414,11682 13525,11654 13581,11792 "
       id="polygon4706"
       style="fill:#cc6633" /><polygon
       class="fil24"
       points="14799,12097 14799,12208 14826,12346 14826,12457 14743,12540 14522,12540 14328,12540 14106,12540 13968,12457 13774,12484 13691,12512 13636,12429 13719,12263 13747,12097 13719,11958 13691,11848 13719,11654 13885,11626 14023,11626 14190,11626 14356,11626 14549,11626 14660,11654 14715,11737 14799,11848 14826,12014 "
       id="polygon4708"
       style="fill:#cc6633" /><polygon
       class="fil24"
       points="12363,11017 12446,10823 12667,10879 12944,10879 13138,10879 13276,10879 13525,10879 13747,10851 13913,10851 14079,10740 14217,10768 14383,10823 14632,10851 14743,10851 14826,10851 14826,10934 14854,11100 14882,11211 14854,11349 14826,11460 14799,11515 14494,11515 14328,11515 14162,11515 13996,11543 13774,11571 13636,11571 13414,11571 13165,11571 12999,11571 12861,11543 12722,11488 12584,11515 12390,11571 12390,11432 12363,11294 12363,11156 "
       id="polygon4710"
       style="fill:#cc6633" /><polygon
       class="fil24"
       points="13414,9827 13497,9910 13497,10021 13525,10131 13525,10298 13553,10491 13553,10602 13525,10685 13331,10740 13221,10740 13055,10768 12861,10796 12722,10768 12556,10685 12473,10574 12501,10436 12473,10298 12446,10159 12446,10021 12446,10021 12446,9993 12446,9993 12446,9965 12446,9965 12446,9938 12446,9938 12446,9910 12584,9910 12805,9938 13027,9938 13248,9938 "
       id="polygon4712"
       style="fill:#cc6633" /><polygon
       class="fil24"
       points="14854,10408 14854,10519 14854,10657 14826,10740 14605,10740 14383,10713 14245,10657 14023,10657 13830,10657 13747,10740 13636,10685 13636,10547 13636,10408 13636,10298 13636,10159 13608,10048 13608,9855 13857,9882 13968,9882 14134,9882 14439,9882 14549,9910 14660,9910 14799,9965 14826,10131 14854,10298 "
       id="polygon4714"
       style="fill:#cc6633" /><polygon
       class="fil24"
       points="13442,8304 13581,8388 13691,8443 13691,8581 13664,8720 13636,8830 13581,8913 13442,8969 13304,8997 13110,8997 12916,8997 12667,8997 12529,8997 12446,8913 12529,8664 12639,8388 12695,8194 12695,8166 12695,8166 12695,8166 12695,8138 12695,8138 12722,8111 12722,8111 12722,8083 12722,8083 12722,8083 12888,8138 13055,8166 13193,8221 13359,8249 "
       id="polygon4716"
       style="fill:#cc6633" /><polygon
       class="fil24"
       points="14134,8554 13968,8526 13802,8498 13802,8692 13774,8830 13747,8913 13636,9024 13857,9135 14023,9190 14245,9246 14439,9273 14688,9273 14826,9218 14854,9080 14882,8941 14909,8858 14826,8720 14605,8664 14356,8581 "
       id="polygon4718"
       style="fill:#cc6633" /><polygon
       class="fil24"
       points="14300,7419 14494,7363 14162,7280 14106,7059 14023,6865 13885,6616 13885,6616 13885,6588 13885,6588 13885,6561 13885,6561 13885,6561 13885,6533 13885,6533 13857,6505 13857,6478 13857,6478 13857,6450 13830,6450 13830,6422 13830,6422 13830,6394 13830,6394 13830,6367 13802,6367 13802,6339 13802,6311 13802,6311 13802,6311 13802,6284 13774,6284 13664,6422 13581,6533 13525,6671 13442,6754 13304,6837 13248,6948 13193,7031 13138,7280 13055,7391 12972,7529 12888,7668 12833,7889 12750,7972 13027,8000 13276,8083 13442,8166 13581,8249 13719,8304 13885,8360 14079,8443 14273,8471 14466,8498 14632,8526 14799,8581 14882,8664 15020,8664 15103,8471 15214,8304 15048,8138 14909,7972 14715,7917 14605,7779 14494,7696 14383,7585 14245,7474 "
       id="polygon4720"
       style="fill:#cc6633" /><polygon
       class="fil24"
       points="15158,6976 15020,7003 14965,7031 14882,7114 14799,7197 14715,7308 14300,7253 14134,6893 13996,6616 13857,6228 14023,6062 14245,5896 14466,5675 14632,5564 14854,5453 14965,5564 14992,5647 14965,5786 14937,5896 14965,6145 15048,6228 15158,6422 15214,6505 15214,6671 15186,6837 "
       id="polygon4722"
       style="fill:#cc6633" /><polygon
       class="fil24"
       points="14522,7585 14605,7668 14715,7723 14937,7806 15075,7945 15186,8083 15269,8221 15408,7972 15574,7806 15712,7696 15795,7612 15906,7529 15906,7336 15795,7170 15712,7031 15546,6920 15380,6754 15297,6948 15241,7003 15075,7059 14937,7197 14854,7280 14799,7391 14577,7391 14466,7419 14383,7474 "
       id="polygon4724"
       style="fill:#cc6633" /><polygon
       class="fil24"
       points="15131,5619 15075,5730 15103,5979 15214,6201 15297,6394 15380,6533 15546,6671 15684,6782 15767,6893 15823,7003 15961,7142 16100,7280 16155,7336 16321,7225 16515,7142 16598,7059 16542,6920 16515,6727 16542,6588 16487,6201 16321,5924 16210,5702 16127,5398 15961,5204 15823,4927 15601,5010 15352,5149 15158,5260 15048,5343 15075,5453 "
       id="polygon4726"
       style="fill:#cc6633" /><polygon
       class="fil24"
       points="16376,4706 16681,4651 16930,4595 17096,4567 17151,4734 17151,4872 17151,4955 17179,5066 17235,5176 17262,5287 17290,5370 17318,5509 17318,5730 17318,5869 17318,6090 17345,6367 17373,6505 17373,6671 17373,6837 17207,6865 17041,6920 16902,6976 16792,7003 16681,6727 16653,6533 16598,6201 16515,5979 16432,5758 16376,5564 16266,5426 16155,5149 16072,4983 16072,4872 16155,4761 "
       id="polygon4728"
       style="fill:#cc6633" /><polygon
       class="fil24"
       points="18840,4955 18812,5121 18812,5315 18785,5509 18646,5786 18480,6118 18425,6394 18342,6588 18342,6727 18314,6810 18037,6810 17622,6810 17456,6810 17539,6505 17539,6090 17484,5702 17428,5481 17373,5149 17318,4844 17262,4706 17290,4540 17511,4567 17871,4567 18065,4540 18480,4512 18729,4540 18923,4540 18868,4817 "
       id="polygon4730"
       style="fill:#cc6633" /><polygon
       class="fil24"
       points="19726,5813 19698,5813 19698,5841 19698,5841 19670,5841 19670,5869 19643,5869 19615,5869 19615,5896 19615,5896 19615,5896 19587,5896 19532,6145 19532,6145 19532,6173 19532,6173 19532,6201 19504,6201 19504,6201 19504,6228 19504,6228 19504,6256 19504,6256 19504,6284 19504,6284 19504,6311 19477,6311 19477,6339 19477,6367 19477,6367 19477,6394 19477,6394 19477,6394 19477,6422 19477,6422 19477,6450 19449,6450 19449,6478 19449,6478 19449,6505 19421,6505 19421,6533 19421,6533 19421,6561 19366,6644 19311,6754 19228,6810 19172,6893 19145,6976 18868,6948 18646,6893 18480,6782 18480,6644 18646,6339 18978,5869 18868,5592 18951,5426 18951,5260 18951,5093 18923,4900 19034,4595 19228,4623 19311,4678 19532,4706 19698,4734 19809,4761 19920,4817 20030,4872 20113,4927 20113,5066 20030,5176 19947,5398 19864,5509 19864,5509 19864,5536 19864,5536 19864,5536 19864,5564 19864,5564 19864,5592 19837,5619 19837,5619 19837,5647 19837,5647 19837,5675 19837,5675 19837,5702 19809,5702 19809,5702 19809,5730 19781,5730 19781,5758 19753,5786 19753,5786 19726,5813 19726,5813 "
       id="polygon4732"
       style="fill:#cc6633" /><polygon
       class="fil24"
       points="20224,5038 20473,5093 20529,5149 20639,5176 20778,5260 20888,5426 20971,5453 21110,5536 21165,5619 21082,5730 20916,5813 20805,5924 20750,6062 20667,6201 20612,6284 20529,6450 20446,6533 20362,6588 20307,6671 20169,6754 20058,6865 19947,6976 19892,7114 19781,7308 19726,7391 19421,7225 19255,7114 19338,6920 19477,6644 19587,6505 19670,6228 19753,5979 19864,5841 19975,5564 20086,5343 20141,5176 "
       id="polygon4734"
       style="fill:#cc6633" /><polygon
       class="fil24"
       points="21663,6007 21774,6062 21885,6090 21913,6201 21940,6284 21691,6256 21691,6339 21608,6450 21553,6561 21470,6644 21387,6727 21248,6810 21165,6920 21027,7003 20861,7031 20695,6865 20639,6754 20501,6671 20501,6561 20639,6450 20750,6284 20805,6145 20861,6035 20916,5896 21054,5841 21193,5730 21331,5675 21470,5730 21525,5813 21608,5841 21636,5924 "
       id="polygon4736"
       style="fill:#cc6633" /><polygon
       class="fil24"
       points="20639,6920 20805,7031 20833,7114 20805,7225 20695,7308 20529,7419 20446,7474 20362,7612 20335,7668 20169,7751 19947,7612 19837,7419 19947,7225 20086,7031 20224,6865 20418,6727 20639,6782 "
       id="polygon4738"
       style="fill:#cc6633" /><polygon
       class="fil24"
       points="22328,6671 22411,6754 22466,6837 22494,6920 22549,7003 22605,7142 22605,7225 22549,7363 22272,7446 22106,7585 21940,7668 21830,7723 21580,7834 21359,7917 21221,8000 21110,8083 21027,8138 20833,8221 20639,8249 20446,8111 20335,7889 20279,7806 20501,7696 20695,7502 20833,7391 20944,7142 21221,7003 21553,6810 21691,6616 21885,6422 22079,6394 22245,6505 22272,6588 "
       id="polygon4740"
       style="fill:#cc6633" /><polygon
       class="fil24"
       points="21774,8360 21830,8471 21830,8554 21830,8609 22134,8609 22356,8609 22577,8554 22715,8471 22937,8443 23075,8332 23131,8277 22965,7889 22937,7696 22881,7557 22743,7363 22549,7474 22522,7529 22383,7612 22217,7696 22079,7751 21913,7806 21747,7889 21663,8028 21608,8138 21802,8221 "
       id="polygon4742"
       style="fill:#cc6633" /><polygon
       class="fil24"
       points="20833,8858 20778,8609 20667,8471 20667,8415 20833,8360 20999,8277 21165,8221 21331,8138 21470,8028 21470,8166 21470,8221 21497,8332 21580,8332 21691,8415 21691,8581 21691,8664 21608,8775 21470,8775 21359,8858 21221,8913 21054,8969 20916,8997 "
       id="polygon4744"
       style="fill:#cc6633" /><polygon
       class="fil24"
       points="21691,8858 21857,8830 22079,8803 22245,8747 22466,8692 22605,8637 22909,8581 23103,8526 23214,8498 23297,8609 23297,8720 23297,8830 23324,8969 23324,9052 23297,9163 23269,9246 22992,9246 22771,9246 22494,9246 22245,9273 22079,9246 21857,9218 21553,9273 21359,9356 21193,9439 20971,9412 20999,9080 21110,9080 21221,9052 21304,8997 21525,8913 "
       id="polygon4746"
       style="fill:#cc6633" /><polygon
       class="fil24"
       points="21442,10796 21304,10768 21193,10740 21138,10630 21054,10408 21054,10214 21110,9938 21304,9938 21470,9965 21691,9965 21830,9910 21968,9910 22079,9938 22106,10104 22134,10270 22134,10381 22189,10574 22134,10685 22079,10713 21802,10740 21691,10768 "
       id="polygon4748"
       style="fill:#cc6633" /><polygon
       class="fil24"
       points="23518,10408 23463,10547 23463,10685 23435,10768 23297,10768 23103,10768 22965,10713 22743,10685 22577,10685 22494,10713 22356,10740 22272,10685 22245,10547 22272,10381 22272,10270 22217,10131 22300,9910 22439,9910 22688,9938 22798,9965 23020,9965 23214,9965 23352,9938 23435,10076 23463,10187 23490,10270 "
       id="polygon4750"
       style="fill:#cc6633" /><polygon
       class="fil24"
       points="20999,11239 20971,11073 20971,11073 20999,11073 20999,11045 20999,11045 20999,11017 20999,11017 20999,10990 20999,10962 20999,10962 20999,10934 20999,10934 20999,10907 21027,10907 21027,10879 21027,10879 21027,10851 21027,10851 21027,10851 21221,10879 21414,10907 21580,10907 21774,10907 21968,10879 22134,10879 22300,10879 22439,10879 22660,10796 22715,10768 22826,10796 22937,10851 23020,10851 23324,10851 23463,10851 23518,11156 23518,11266 23490,11377 23490,11432 23463,11543 23407,11599 23131,11571 22909,11543 22743,11571 22605,11571 22411,11571 22272,11571 22106,11571 21940,11571 21719,11571 21525,11571 21387,11515 21248,11515 21110,11543 21027,11460 "
       id="polygon4752"
       style="fill:#cc6633" /><polygon
       class="fil24"
       points="21221,11682 21331,11654 21525,11682 21691,11682 21830,11682 22023,11682 22134,11682 22217,11792 22217,11903 22217,12041 22272,12152 22245,12235 22217,12318 22189,12346 22189,12429 22134,12484 22134,12540 21968,12567 21857,12567 21774,12540 21636,12512 21553,12484 21525,12512 21414,12540 21331,12540 21248,12512 21165,12540 21054,12540 21054,12429 21082,12318 21054,12208 20999,12097 21027,11986 21027,11820 21082,11682 "
       id="polygon4754"
       style="fill:#cc6633" /><polygon
       class="fil24"
       points="22300,11682 22300,11820 22328,11958 22383,12041 22356,12180 22328,12263 22328,12374 22300,12429 22272,12484 22300,12540 22411,12512 22549,12512 22632,12540 22771,12567 22937,12567 23075,12567 23214,12567 23324,12540 23407,12512 23435,12374 23463,12318 23435,12208 23407,12124 23407,12014 23463,11931 23407,11765 23352,11682 23186,11654 23048,11654 22937,11654 22826,11682 22771,11654 22605,11682 22439,11682 22383,11654 "
       id="polygon4756"
       style="fill:#cc6633" /><polygon
       class="fil24"
       points="21719,13453 21580,13453 21414,13453 21331,13426 21193,13370 21082,13370 21054,13426 21027,13315 21027,13204 21054,13093 21082,12983 20999,12900 20999,12761 21027,12761 21027,12761 21027,12733 21027,12733 21027,12706 21054,12706 21054,12678 21221,12650 21387,12650 21636,12650 21747,12650 21885,12623 22079,12650 22300,12650 22494,12623 22688,12623 22826,12650 23075,12650 23269,12623 23352,12623 23435,12623 23435,12733 23463,12844 23435,12983 23407,13121 23380,13176 23407,13287 23463,13370 23463,13481 23352,13481 23186,13426 23131,13426 22992,13453 22798,13481 22688,13509 22577,13453 22439,13426 22300,13453 22217,13453 22079,13398 21996,13370 21885,13370 "
       id="polygon4758"
       style="fill:#cc6633" /><polygon
       class="fil24"
       points="21414,13564 21525,13592 21636,13619 21774,13592 21830,13564 22051,13536 22106,13592 22189,13647 22217,13758 22217,13868 22217,14007 22162,14090 22162,14228 22134,14367 22023,14284 21968,14311 21885,14339 21691,14339 21580,14284 21470,14256 21442,14284 21359,14311 21276,14339 21110,14339 21054,14228 21054,14118 21082,14035 21054,13924 21110,13841 21082,13702 21082,13564 21165,13536 21276,13536 "
       id="polygon4760"
       style="fill:#cc6633" /><polygon
       class="fil24"
       points="22272,13675 22272,13564 22411,13564 22439,13564 22577,13564 22688,13619 22771,13619 22909,13592 22992,13564 23103,13536 23186,13536 23269,13536 23380,13564 23407,13592 23407,13730 23407,13841 23407,13924 23407,14062 23407,14118 23407,14228 23380,14256 23297,14284 23186,14339 23048,14339 22854,14339 22798,14284 22771,14311 22632,14311 22549,14256 22494,14284 22439,14311 22328,14311 22245,14256 22245,14062 22272,13952 22300,13841 22300,13758 "
       id="polygon4762"
       style="fill:#cc6633" /><polygon
       class="fil24"
       points="22300,15086 22134,15086 22023,15059 21830,15031 21663,15031 21553,15031 21497,15059 21359,15114 21221,15114 21054,15114 21027,15031 21027,14865 21054,14699 21054,14588 21027,14450 21110,14450 21304,14477 21414,14477 21470,14422 21608,14450 21719,14477 21940,14477 22106,14422 22217,14422 22328,14450 22439,14450 22494,14422 22632,14450 22715,14477 22826,14477 22826,14450 22992,14450 23131,14450 23297,14450 23407,14422 23463,14422 23463,14616 23407,14644 23435,14782 23463,14837 23463,14893 23407,14976 23352,15031 23158,15086 23020,15114 22881,15086 22743,15059 22577,15031 22439,15031 22328,15031 "
       id="polygon4764"
       style="fill:#cc6633" /></g><g
     transform="translate(-11562.966,-3156.5576)"
     id="g4766"
     style="clip-rule:evenodd;fill-rule:evenodd;image-rendering:optimizeQuality;shape-rendering:geometricPrecision;text-rendering:geometricPrecision"><polygon
       class="fil22"
       points="12446,15751 12307,15668 12224,15529 12169,15336 12252,15142 12473,15169 12722,15169 12888,15142 13082,15142 13276,15142 13470,15197 13470,15308 13470,15502 13470,15640 13442,15723 13331,15723 13165,15695 13027,15695 12833,15751 12667,15778 "
       id="polygon4768"
       style="fill:#996633" /><polygon
       class="fil22"
       points="14965,15557 14882,15640 14715,15695 14605,15751 14383,15751 14245,15751 14023,15695 13885,15695 13664,15751 13581,15640 13581,15446 13581,15363 13608,15197 13747,15169 13996,15086 14134,15142 14328,15169 14522,15169 14688,15142 14826,15114 14909,15197 14909,15280 14882,15363 14909,15446 "
       id="polygon4770"
       style="fill:#996633" /><polygon
       class="fil22"
       points="12307,9550 12307,9522 12307,9495 12307,9467 12307,9439 12307,9412 12307,9384 12307,9356 12307,9329 12307,9301 12307,9273 12307,9246 12307,9246 12307,9218 12307,9190 12307,9190 12307,9163 12501,9163 12722,9163 12972,9135 13165,9135 13331,9107 13442,9135 13553,9218 13719,9273 13885,9356 14023,9356 14356,9356 14549,9356 14854,9356 14965,9356 14965,9605 14965,9772 14688,9799 14300,9799 14079,9799 13774,9799 13525,9716 13304,9744 13027,9772 12750,9772 12501,9772 12307,9772 12307,9744 12307,9744 12307,9716 12307,9689 12307,9661 12307,9661 12307,9633 12307,9605 12307,9578 "
       id="polygon4772"
       style="fill:#996633" /><polygon
       class="fil22"
       points="20778,9744 20778,9716 20778,9716 20778,9689 20805,9661 20805,9661 20805,9633 20805,9633 20805,9605 20805,9578 20805,9578 20805,9550 20805,9550 20805,9522 20805,9522 20805,9495 20805,9467 20805,9467 20805,9439 20805,9439 20805,9412 20805,9412 20971,9522 21221,9495 21359,9467 21525,9412 21719,9356 21857,9329 22051,9329 22134,9384 22522,9356 22660,9384 22854,9356 23131,9356 23241,9356 23574,9301 23574,9439 23574,9605 23601,9689 23601,9744 23518,9772 23352,9799 23131,9827 22854,9799 22632,9799 22356,9772 22217,9772 21940,9799 21830,9772 21525,9799 21248,9799 21110,9799 20944,9799 20778,9799 20778,9772 20778,9772 20778,9744 "
       id="polygon4774"
       style="fill:#996633" /><polygon
       class="fil22"
       points="20916,15225 21138,15225 21331,15225 21470,15225 21580,15197 21747,15197 21885,15197 21996,15225 22162,15280 22134,15446 22162,15612 22134,15723 22134,15778 21913,15778 21719,15723 21636,15751 21553,15806 21387,15806 21193,15778 21054,15778 20916,15751 20888,15640 20833,15529 20805,15446 20833,15363 20833,15336 20833,15336 20833,15308 20861,15308 20861,15308 20861,15280 20861,15253 20888,15253 20888,15253 20888,15225 20888,15225 "
       id="polygon4776"
       style="fill:#996633" /><polygon
       class="fil22"
       points="23435,15142 23518,15114 23629,15169 23629,15253 23601,15336 23546,15391 23601,15474 23657,15557 23629,15668 23407,15695 23324,15751 23103,15778 22937,15751 22771,15723 22660,15695 22494,15723 22300,15751 22300,15557 22300,15419 22300,15253 22300,15197 22494,15197 22605,15169 22660,15142 22826,15142 23020,15169 23158,15197 23297,15169 "
       id="polygon4778"
       style="fill:#996633" /></g><polygon
     transform="translate(-11562.966,-3156.5576)"
     style="clip-rule:evenodd;fill:#996633;fill-rule:evenodd;image-rendering:optimizeQuality;shape-rendering:geometricPrecision;text-rendering:geometricPrecision"
     id="polygon4780"
     points="20086,5564 20086,5619 20058,5647 20058,5675 20058,5730 20030,5758 20030,5786 20003,5841 20003,5869 19975,5896 19975,5924 19975,5979 19975,6007 19975,6035 19975,6062 19975,6090 19975,6118 19975,6145 19975,6173 19975,6201 19975,6228 20003,6256 20003,6284 20030,6311 20030,6339 20030,6367 20030,6394 20058,6422 20058,6450 20086,6450 20086,6478 18342,6422 18425,10159 17927,9938 17345,10131 17567,6422 15795,6505 15823,6478 15823,6450 15850,6422 15878,6394 15878,6394 15878,6367 15878,6311 15906,6284 15906,6256 15906,6228 15906,6228 15906,6201 15933,6173 15933,6118 15933,6090 15933,6062 15933,6035 15933,6007 15933,5979 15933,5952 15906,5924 15906,5896 15906,5869 15906,5813 15906,5786 15878,5758 15878,5730 15878,5702 15850,5647 15850,5619 15823,5592 15823,5536 17539,5675 17401,4180 17428,4208 17456,4235 17511,4235 17539,4263 17567,4291 17594,4291 17622,4291 17677,4318 17705,4318 17733,4318 17760,4346 17816,4346 17843,4346 17871,4346 17899,4346 17954,4346 17982,4346 18010,4346 18037,4346 18093,4346 18120,4318 18148,4318 18176,4318 18203,4318 18259,4291 18286,4291 18314,4263 18342,4235 18369,4235 18397,4208 18425,4208 18480,4180 18369,5675 20141,5509 20113,5536 "
     class="fil22" /><polygon
     transform="translate(-11562.966,-3156.5576)"
     style="clip-rule:evenodd;fill:#ff0000;fill-rule:evenodd;image-rendering:optimizeQuality;shape-rendering:geometricPrecision;text-rendering:geometricPrecision"
     id="polygon4782"
     points="18757,6201 18646,6422 18425,6533 18286,6671 18148,6837 17982,6920 17816,6948 17622,6948 17456,6782 17401,6561 17373,6394 17235,6284 17068,6118 17041,5841 17096,5647 17262,5536 17456,5509 17705,5675 17788,5758 17982,5786 18093,5675 18286,5564 18369,5564 18619,5647 18812,5786 18840,5979 "
     class="fil25" /><text
     transform="scale(1.14251,0.87526587)"
     id="text4810"
     y="15616.474"
     x="3306.9023"
     style="font-style:normal;font-weight:normal;font-size:2220.5065918px;line-height:125%;font-family:sans-serif;letter-spacing:0px;word-spacing:0px;clip-rule:evenodd;fill:#1a1a1a;fill-opacity:1;fill-rule:evenodd;stroke:none;stroke-width:1px;stroke-linecap:butt;stroke-linejoin:miter;stroke-opacity:1;image-rendering:optimizeQuality;shape-rendering:geometricPrecision;text-rendering:geometricPrecision;"
     xml:space="preserve"><tspan
       style="font-style:normal;font-variant:normal;font-weight:500;font-stretch:normal;font-family:'Giligan ExtraBold';-inkscape-font-specification:'Giligan ExtraBold, Medium';fill:#1a1a1a;"
       y="15616.474"
       x="3306.9023"
       id="tspan4812">UNI</tspan></text>
<polyline
     class="fil23 str0"
     points="15574,12180 15352,12208 14992,15003 15158,15003 15352,15003 15518,14976 15712,14976 15878,14948 16072,14893 16266,14893 16432,14865 16626,14837 16792,14837 16985,14837 17151,14865 17318,14920 17484,14976 17650,15059 17816,15169 18093,15169 18259,15059 18425,14976 18619,14920 18785,14865 18951,14865 19145,14837 19311,14865 19477,14865 19670,14893 19837,14920 20003,14948 20169,14976 20362,15003 20529,15031 20695,15031 20888,15031 20556,12208 20335,12180 20667,14865 20501,14865 20335,14837 20169,14837 19975,14810 19837,14782 19670,14754 19504,14699 19338,14671 19145,14671 18978,14644 18812,14644 18646,14671 18480,14699 18314,14782 18148,14837 17982,14948 17843,14948 17705,14837 17567,14754 17401,14671 17262,14644 17096,14616 16930,14616 16764,14644 16598,14644 16432,14671 16266,14699 16072,14754 15906,14782 15740,14810 15574,14837 15408,14865 15241,14865 15574,12180 "
     id="polyline4204-8-9"
     style="clip-rule:evenodd;fill:#4d4d4d;fill-rule:evenodd;stroke:none;stroke-width:49.95999908;image-rendering:optimizeQuality;shape-rendering:geometricPrecision;text-rendering:geometricPrecision"
     transform="matrix(0.93402672,0,0,0.94677495,-10406.741,-2379.5988)" /><polyline
     class="fil23 str0"
     points="15574,12180 15352,12208 14992,15003 15158,15003 15352,15003 15518,14976 15712,14976 15878,14948 16072,14893 16266,14893 16432,14865 16626,14837 16792,14837 16985,14837 17151,14865 17318,14920 17484,14976 17650,15059 17816,15169 18093,15169 18259,15059 18425,14976 18619,14920 18785,14865 18951,14865 19145,14837 19311,14865 19477,14865 19670,14893 19837,14920 20003,14948 20169,14976 20362,15003 20529,15031 20695,15031 20888,15031 20556,12208 20335,12180 20667,14865 20501,14865 20335,14837 20169,14837 19975,14810 19837,14782 19670,14754 19504,14699 19338,14671 19145,14671 18978,14644 18812,14644 18646,14671 18480,14699 18314,14782 18148,14837 17982,14948 17843,14948 17705,14837 17567,14754 17401,14671 17262,14644 17096,14616 16930,14616 16764,14644 16598,14644 16432,14671 16266,14699 16072,14754 15906,14782 15740,14810 15574,14837 15408,14865 15241,14865 15574,12180 "
     id="polyline4204-8-7"
     style="clip-rule:evenodd;fill:#1a1a1a;fill-rule:evenodd;stroke:none;stroke-width:49.95999908;image-rendering:optimizeQuality;shape-rendering:geometricPrecision;text-rendering:geometricPrecision"
     transform="matrix(0.98307647,0,0,1.0083456,-11273.549,-3151.9568)" /><polyline
     transform="matrix(0.97979584,0,0,0.99077844,-11201.97,-2938.1413)"
     style="clip-rule:evenodd;fill:#808080;fill-rule:evenodd;stroke:none;stroke-width:49.95999908;image-rendering:optimizeQuality;shape-rendering:geometricPrecision;text-rendering:geometricPrecision"
     id="polyline4686-9-3"
     points="15740,12152 15657,12097 15324,14810 15463,14810 15629,14810 15795,14782 15933,14782 16072,14754 16238,14699 16376,14671 16515,14644 16681,14644 16819,14644 16985,14644 17179,14644 17345,14699 17539,14754 17760,14837 17954,14948 18120,14837 18286,14754 18452,14671 18619,14644 18785,14616 18923,14616 19089,14616 19255,14644 19421,14671 19560,14699 19726,14727 19892,14754 20058,14782 20224,14810 20390,14837 20529,14837 20252,12124 20141,12152 "
     class="fil23 str0" /><g
     style="clip-rule:evenodd;fill:#f2f2f2;fill-rule:evenodd;stroke:none;image-rendering:optimizeQuality;shape-rendering:geometricPrecision;text-rendering:geometricPrecision"
     transform="translate(-195.195,3763.6846)"
     id="g4688-1-6"><g
       style="fill:#f2f2f2;stroke:none"
       id="g4690-2-1"
       transform="translate(-177.89277,-161.7207)"><polyline
         transform="translate(-11191.072,-6679.065)"
         style="fill:#f2f2f2;stroke:none;stroke-width:49.95999908"
         id="polyline4692-7-2"
         points="15795,12041 16072,12041 16349,12014 16653,11931 16930,11848 17207,11792 17456,11765 17705,11820 17954,11958 18231,11820 18508,11737 18812,11765 19061,11792 19366,11875 19615,11958 19892,12041 20169,12069 20390,14699 20252,14699 20086,14699 19920,14671 19781,14671 19615,14644 19477,14616 19311,14588 19145,14560 18978,14533 18840,14533 18674,14533 18536,14560 18397,14588 18231,14644 18093,14754 17954,14837 17760,14754 17594,14644 17428,14588 17262,14560 17096,14560 16958,14533 16792,14560 16653,14560 16487,14588 16349,14616 16210,14644 16072,14671 15906,14699 15767,14727 15601,14727 15463,14727 15795,12041 "
         class="fil23 str0" /></g><line
       class="fil23 str0"
       x1="6558.0352"
       y1="5117.2144"
       x2="6585.0352"
       y2="7996.2139"
       id="line4694-0-9"
       style="fill:#f2f2f2;stroke:none;stroke-width:49.95999908" /></g><g
     id="g4784-1-3"
     transform="translate(-11997.475,-3013.1585)"
     style="clip-rule:evenodd;fill:#ffdd55;fill-rule:evenodd;image-rendering:optimizeQuality;shape-rendering:geometricPrecision;text-rendering:geometricPrecision"><polygon
       class="fil27"
       points="20750,10962 20778,10934 20778,10907 20750,10907 20695,10907 20667,10907 20639,10907 20584,10907 20556,10907 20529,10934 20473,10934 20446,10934 20418,10934 20390,10962 20362,10962 20335,10962 20307,10990 20279,11017 20252,11017 20224,11045 20169,11045 20141,11073 20141,11073 20113,11100 20086,11128 20058,11128 20030,11156 20030,11183 19975,11211 19975,11239 19947,11266 19920,11294 19920,11322 19892,11349 19892,11377 19920,11377 19947,11377 19975,11405 20030,11405 20058,11405 20086,11405 20113,11405 20141,11377 20196,11377 20224,11349 20252,11349 20279,11349 20335,11349 20362,11322 20390,11322 20418,11294 20446,11294 20473,11266 20501,11266 20529,11239 20584,11211 20584,11211 20612,11156 20639,11128 20667,11128 20667,11100 20695,11073 20722,11045 20750,11017 "
       id="polygon4786-8-1"
       style="fill:#ffdd55" /><polygon
       class="fil27"
       points="19145,12650 19145,12623 19145,12595 19117,12567 19089,12567 19034,12567 19006,12567 18978,12567 18951,12567 18895,12567 18868,12567 18840,12567 18812,12595 18785,12595 18757,12595 18702,12595 18674,12623 18646,12623 18619,12623 18591,12650 18563,12650 18536,12678 18508,12706 18480,12706 18452,12733 18425,12761 18397,12761 18369,12789 18342,12817 18314,12817 18314,12844 18286,12900 18259,12900 18259,12927 18231,12955 18259,12983 18286,12983 18314,12983 18342,12983 18397,12983 18425,12983 18452,12983 18508,12983 18536,12983 18563,12983 18619,12983 18646,12983 18674,12955 18702,12955 18757,12955 18785,12927 18812,12927 18840,12927 18868,12900 18895,12872 18923,12844 18951,12844 18978,12817 19006,12789 19034,12789 19061,12761 19061,12733 19089,12706 19117,12678 "
       id="polygon4788-7-9"
       style="fill:#ffdd55" /><polygon
       class="fil27"
       points="19560,12291 19560,12263 19587,12235 19560,12208 19532,12208 19477,12208 19449,12208 19421,12208 19394,12180 19338,12180 19311,12180 19283,12180 19228,12180 19200,12180 19172,12180 19145,12180 19117,12208 19089,12208 19034,12208 19006,12208 18978,12235 18951,12235 18923,12235 18895,12263 18868,12263 18840,12291 18812,12318 18785,12318 18757,12346 18729,12374 18702,12374 18674,12401 18674,12429 18646,12457 18619,12484 18646,12512 18674,12512 18702,12512 18757,12540 18785,12540 18812,12540 18840,12540 18868,12540 18895,12540 18951,12540 18978,12540 19006,12540 19061,12540 19089,12540 19117,12540 19172,12540 19200,12540 19228,12512 19255,12512 19283,12484 19338,12457 19366,12457 19394,12429 19394,12429 19421,12401 19477,12374 19504,12374 19504,12346 19532,12318 "
       id="polygon4790-9-4"
       style="fill:#ffdd55" /><polygon
       class="fil27"
       points="19947,11903 19975,11875 20003,11848 19947,11848 19920,11820 19892,11820 19864,11820 19837,11820 19781,11792 19753,11792 19726,11792 19698,11792 19670,11792 19615,11792 19587,11792 19560,11820 19532,11820 19504,11820 19477,11820 19421,11820 19394,11848 19366,11848 19338,11848 19311,11875 19283,11875 19255,11903 19228,11903 19200,11958 19172,11958 19145,11986 19117,12014 19117,12014 19061,12041 19061,12069 19034,12097 19061,12097 19089,12124 19117,12124 19145,12152 19200,12152 19228,12152 19255,12152 19283,12152 19338,12180 19366,12180 19394,12180 19421,12180 19477,12152 19504,12152 19532,12152 19560,12152 19587,12152 19615,12124 19670,12097 19698,12097 19726,12097 19753,12069 19781,12069 19837,12041 19864,12014 19864,12014 19892,11986 19920,11958 19947,11931 "
       id="polygon4792-2-7"
       style="fill:#ffdd55" /><polygon
       class="fil27"
       points="20473,11626 20501,11599 20529,11571 20501,11571 20473,11543 20446,11515 20390,11515 20362,11515 20335,11488 20307,11488 20279,11488 20224,11488 20196,11460 20169,11460 20141,11460 20086,11460 20058,11460 20030,11460 20003,11460 19975,11488 19947,11488 19920,11488 19864,11488 19837,11488 19809,11515 19781,11515 19753,11543 19726,11571 19698,11571 19670,11599 19643,11599 19615,11626 19587,11626 19560,11654 19532,11682 19560,11682 19587,11709 19615,11709 19670,11737 19698,11765 19726,11765 19753,11792 19781,11792 19837,11792 19864,11792 19892,11792 19920,11820 19947,11820 19975,11820 20030,11820 20058,11820 20086,11792 20113,11792 20169,11792 20196,11792 20224,11792 20252,11765 20279,11765 20307,11737 20335,11709 20390,11709 20418,11682 20446,11654 20473,11654 "
       id="polygon4794-0-8"
       style="fill:#ffdd55" /><polygon
       class="fil27"
       points="18702,13149 18729,13121 18729,13093 18702,13093 18674,13093 18619,13093 18591,13093 18536,13093 18508,13093 18480,13093 18452,13093 18425,13121 18397,13121 18342,13121 18314,13149 18286,13149 18259,13149 18231,13176 18203,13176 18176,13204 18148,13204 18120,13232 18093,13259 18065,13287 18037,13287 18037,13315 17982,13343 17982,13343 17954,13370 17927,13398 17927,13426 17899,13453 17871,13481 17871,13509 17843,13536 17899,13536 17927,13564 17954,13564 17982,13564 18010,13564 18065,13564 18093,13564 18120,13536 18148,13536 18176,13536 18231,13536 18259,13536 18286,13509 18314,13509 18342,13481 18397,13481 18425,13453 18452,13453 18480,13426 18508,13398 18536,13370 18563,13370 18591,13343 18619,13315 18619,13287 18646,13259 18674,13232 18674,13204 18702,13176 "
       id="polygon4796-2-4"
       style="fill:#ffdd55" /><polygon
       class="fil27"
       points="17927,12567 17927,12540 17899,12512 17871,12540 17871,12567 17816,12595 17816,12623 17788,12650 17788,12706 17760,12733 17760,12761 17733,12789 17733,12817 17733,12844 17705,12872 17705,12927 17705,12955 17705,12983 17705,13010 17705,13038 17705,13066 17705,13093 17705,13121 17705,13149 17705,13176 17705,13204 17705,13259 17705,13287 17733,13315 17733,13343 17733,13370 17760,13398 17760,13426 17788,13453 17816,13481 17816,13481 17871,13453 17871,13398 17899,13398 17899,13370 17927,13343 17954,13315 17954,13287 17982,13259 17982,13204 17982,13176 18010,13149 18037,13121 18037,13093 18037,13066 18037,13010 18037,12983 18037,12955 18065,12927 18037,12900 18037,12844 18037,12817 18037,12789 18037,12761 18010,12733 18010,12706 17982,12650 17982,12623 17954,12595 "
       id="polygon4798-3-5"
       style="fill:#ffdd55" /><polygon
       class="fil27"
       points="18314,12014 18286,11986 18259,11958 18259,11986 18231,12014 18203,12041 18176,12069 18176,12097 18148,12152 18120,12180 18120,12208 18120,12235 18093,12263 18093,12291 18093,12318 18065,12374 18065,12401 18065,12429 18065,12457 18065,12484 18065,12512 18065,12540 18065,12567 18065,12595 18065,12623 18065,12650 18065,12706 18093,12733 18093,12761 18093,12789 18120,12817 18120,12844 18148,12872 18148,12900 18176,12927 18203,12927 18231,12900 18231,12844 18259,12844 18286,12817 18286,12789 18314,12761 18314,12733 18342,12706 18342,12650 18369,12623 18397,12595 18397,12567 18397,12540 18397,12512 18425,12457 18425,12429 18425,12401 18425,12374 18425,12346 18425,12291 18397,12263 18397,12235 18397,12208 18397,12180 18369,12152 18342,12097 18342,12069 18314,12041 "
       id="polygon4800-7-0"
       style="fill:#ffdd55" /><polygon
       class="fil27"
       points="18812,11571 18785,11515 18757,11488 18757,11515 18702,11543 18674,11571 18674,11599 18646,11626 18619,11654 18619,11682 18591,11709 18563,11737 18536,11765 18536,11792 18508,11820 18508,11848 18508,11875 18480,11903 18480,11958 18480,11986 18452,12014 18452,12041 18452,12069 18452,12097 18452,12124 18452,12152 18452,12180 18452,12208 18452,12235 18480,12291 18480,12318 18480,12346 18480,12374 18508,12401 18508,12429 18536,12429 18563,12401 18591,12374 18619,12346 18646,12346 18646,12318 18674,12263 18702,12235 18729,12208 18757,12208 18757,12180 18785,12152 18785,12097 18812,12069 18812,12041 18812,12014 18840,11986 18840,11958 18840,11903 18840,11875 18840,11848 18840,11820 18840,11792 18840,11737 18840,11709 18840,11682 18840,11654 18812,11626 18812,11599 "
       id="polygon4802-5-3"
       style="fill:#ffdd55" /><polygon
       class="fil27"
       points="19338,11156 19311,11128 19311,11100 19255,11128 19228,11156 19228,11183 19200,11211 19172,11239 19145,11266 19117,11266 19117,11294 19089,11322 19061,11349 19034,11405 19034,11405 19006,11432 19006,11460 18978,11488 18978,11515 18978,11571 18951,11599 18951,11626 18951,11654 18951,11682 18951,11709 18951,11737 18951,11765 18951,11820 18951,11848 18951,11875 18951,11903 18951,11931 18951,11958 18951,11986 18978,12014 19006,12014 19034,11986 19061,11986 19061,11958 19117,11931 19145,11903 19145,11875 19172,11848 19200,11820 19200,11792 19228,11765 19255,11765 19255,11709 19283,11682 19311,11654 19311,11626 19338,11599 19338,11571 19338,11515 19366,11488 19366,11460 19366,11432 19366,11405 19366,11349 19366,11322 19366,11294 19366,11266 19338,11239 19338,11211 "
       id="polygon4804-9-6"
       style="fill:#ffdd55" /><polygon
       class="fil27"
       points="19947,10823 19947,10768 19920,10740 19892,10768 19864,10796 19837,10823 19809,10823 19781,10851 19753,10879 19726,10907 19698,10934 19698,10934 19670,10962 19643,11017 19615,11017 19587,11045 19587,11073 19560,11100 19560,11128 19532,11156 19532,11183 19532,11211 19504,11239 19504,11266 19504,11294 19477,11322 19477,11349 19477,11405 19477,11432 19477,11460 19477,11488 19477,11515 19477,11571 19477,11599 19504,11626 19532,11626 19560,11599 19560,11571 19587,11571 19615,11543 19670,11515 19698,11488 19698,11488 19726,11460 19753,11432 19781,11405 19809,11377 19837,11349 19837,11322 19864,11294 19892,11266 19892,11239 19920,11211 19920,11156 19920,11128 19947,11100 19947,11073 19947,11045 19947,11017 19947,10962 19947,10934 19947,10907 19947,10879 19947,10851 "
       id="polygon4806-2-1"
       style="fill:#ffdd55" /><polygon
       class="fil27"
       points="17401,13979 17345,14090 17235,14228 17151,14339 17539,14145 17567,14062 17594,14007 17650,13896 17705,13813 17733,13730 17788,13647 17816,13564 17899,13481 17927,13370 17982,13287 18065,13176 18120,13093 18176,12983 18259,12900 18314,12817 18397,12733 18452,12623 18536,12540 18619,12429 18702,12346 18785,12263 18868,12180 18978,12069 19061,11986 19145,11903 19255,11820 19366,11737 19477,11654 19560,11599 19670,11515 19781,11432 19892,11377 19781,11432 19698,11460 19587,11515 19504,11599 19394,11654 19311,11709 19228,11792 19145,11848 19034,11931 18951,12014 18868,12069 18785,12180 18702,12263 18619,12346 18536,12429 18452,12540 18397,12623 18314,12733 18231,12844 18148,12955 18065,13066 17982,13176 17899,13287 17816,13398 17733,13509 17677,13619 17594,13730 17511,13868 "
       id="polygon4808-2-0"
       style="fill:#ffdd55" /></g></svg>